<svg version="1.1" xmlns="http://www.w3.org/2000/svg" style="display: block;" viewBox="0 0 2048 2048" width="1024" height="1024">
<path transform="translate(0,0)" fill="rgb(248,246,238)" d="M 0 0 L 2048 0 L 2048 2048 L 0 2048 L 0 0 z"/>
<path transform="translate(0,0)" fill="rgb(58,58,53)" d="M 205.09 928.656 L 203.418 925.709 C 202.401 916.684 227.49 886.531 234.151 878.338 C 337.459 751.255 515.137 688.331 665.393 636.641 C 742.796 610.014 824.846 583.562 888.975 530.671 A 275.218 275.218 0 0 0 979.185 387.098 C 981.466 377.921 982.963 357.251 988.177 350.185 C 989.867 347.894 991.025 347.201 993.757 346.599 C 996.14 347.107 997.399 347.113 998.747 349.43 C 1001.11 353.497 998.504 361.948 997.477 366.376 C 979.104 453.904 939.167 515.663 863.949 564.868 C 799.72 606.885 724.872 629.84 652.868 654.501 C 523.733 698.728 355.753 763.499 262.454 865.78 C 249.861 879.586 223.895 908.423 216.825 924.44 C 214.995 926.533 213.517 928.42 210.563 928.781 C 208.822 928.994 206.843 928.763 205.09 928.656 z"/>
<path transform="translate(0,0)" fill="rgb(183,213,220)" d="M 1330.62 1718.13 C 1344.65 1721.54 1357.82 1728.19 1372.06 1731.33 C 1428.52 1743.81 1494.29 1734.47 1547.51 1712.29 A 376.492 376.492 0 0 1 1433.39 1886.31 C 1417.35 1900.17 1399.8 1913.34 1381 1923.17 C 1336.48 1946.43 1280.6 1957.58 1231.68 1942.15 C 1212.64 1936.14 1194.11 1925.63 1177.45 1914.72 C 1172.17 1911.26 1166.72 1905.08 1161.12 1902.68 C 1168.33 1896.66 1174.49 1887.77 1180.62 1880.53 A 1153.54 1153.54 0 0 1 1211.67 1845.2 C 1251.15 1802.48 1292.8 1762.46 1330.62 1718.13 z"/>
<path transform="translate(0,0)" fill="rgb(51,51,47)" d="M 586.186 238.689 C 586.498 238.803 586.841 238.853 587.122 239.031 C 589.013 240.226 589.528 241.397 589.948 243.515 C 591.288 250.272 590.135 258.326 589.618 265.193 C 586.353 308.53 567.988 350.439 542.799 385.567 C 513.703 426.147 473.151 461.402 424.987 476.589 C 413.298 480.275 401.367 482.251 389.31 484.256 C 380.519 490.978 372.731 500.762 365.247 508.906 C 341.326 534.936 317.237 561.739 297.285 590.991 C 315.775 580.645 335.461 570.23 356.102 564.982 C 365.708 562.54 376.629 563.224 385.757 559.273 C 399.176 553.466 407.434 542.435 423.533 537.12 C 478.161 519.083 541.004 532.631 592.284 555.189 C 598.019 557.711 604.154 559.721 609.682 562.649 C 613.711 564.783 616.578 566.459 617.983 570.941 C 613.349 578.383 559.786 593.782 548.358 596.52 C 508.112 606.162 459.937 610.085 421.673 592.206 C 408.171 585.897 396.012 576.799 383.318 569.03 C 360.558 571.435 341.714 576.355 321.148 586.687 C 309.845 592.365 295.701 598.802 286.517 607.524 C 279.237 614.439 273.848 624.532 268.491 633.041 C 246.632 667.767 230.336 705.374 217.745 744.356 C 214.55 754.247 212.701 764.594 209.429 774.367 C 207.302 776.323 206.827 776.715 204.043 777.393 L 202.253 776.256 C 200.486 766.524 212.729 735.048 216.08 724.719 C 222.207 706.489 229.186 688.783 234.439 670.241 C 243.092 639.697 262.449 548.812 253.96 521.536 C 250.313 509.819 244.709 498.344 240.047 486.985 C 230.197 462.987 221.841 438.945 217.232 413.331 C 209.947 372.85 211.707 328.277 222.57 288.507 C 224.781 280.408 226.913 271.093 231.745 264.109 C 233.873 262.925 234.865 262.398 237.436 263.119 C 245.841 265.476 257.542 282.836 262.46 289.813 C 302.208 346.205 316.917 416.295 291.189 481.951 C 284.9 498 269.161 518.635 265.385 533.214 C 261.55 548.02 262.337 565.559 260.211 580.917 C 256.756 605.864 251.181 630.298 246.926 655.084 C 269.562 614.043 296.51 574.343 327.662 539.287 A 3979.28 3979.28 0 0 1 364.078 499.197 C 371.333 491.372 379.27 483.896 385.75 475.416 C 387.543 458.034 390.329 441.136 395.881 424.516 C 417.442 359.971 476.545 312.15 530.249 274.272 C 547.837 261.867 566.921 248.285 586.186 238.689 z"/>
<path transform="translate(0,0)" fill="rgb(248,246,238)" d="M 566.115 258.966 L 566.72 259.568 C 565.748 265.685 542.146 297.637 537.205 304.773 C 535.601 302.841 536.971 283.255 537.021 279.187 C 546.395 272.085 556.485 265.736 566.115 258.966 z"/>
<path transform="translate(0,0)" fill="rgb(248,246,238)" d="M 553.272 551.012 C 567.358 550.189 585.115 559.854 597.452 565.922 C 587.983 565.155 578.408 565.195 568.911 564.992 A 1385.49 1385.49 0 0 1 524.768 562.846 C 534.124 558.343 543.541 554.591 553.272 551.012 z"/>
<path transform="translate(0,0)" fill="rgb(248,246,238)" d="M 515.21 571.218 C 542.792 570.606 570.34 573.598 597.958 572.705 L 585.755 576.642 C 572.215 581.186 558.01 586.903 543.788 588.573 C 534.424 582.438 525.196 576.317 515.21 571.218 z"/>
<path transform="translate(0,0)" fill="rgb(248,246,238)" d="M 507.12 539.228 C 519.206 540.537 531.032 543.139 542.898 545.698 C 531.147 551.14 513.551 563.623 501.167 562.109 L 464.54 560.259 C 478.419 552.812 492.707 545.564 507.12 539.228 z"/>
<path transform="translate(0,0)" fill="rgb(248,246,238)" d="M 232.276 283.699 C 239.486 291.936 251.835 345.774 251.753 357.657 L 250.773 358.154 L 248.215 355.433 C 240.26 345.809 232.314 337.17 222.525 329.384 C 223.45 314.031 227.015 298.142 232.276 283.699 z"/>
<path transform="translate(0,0)" fill="rgb(248,246,238)" d="M 463.291 568.766 C 476.02 568.833 491.072 567.563 503.025 572.432 C 507.953 574.439 529.801 586.804 531.616 590.958 L 529.781 592.089 C 518.016 594.253 506.247 595.474 494.334 596.377 A 1639.48 1639.48 0 0 1 463.291 568.766 z"/>
<path transform="translate(0,0)" fill="rgb(248,246,238)" d="M 582.691 250.688 C 585.941 263.743 578.964 288.338 575.28 301.073 A 377.216 377.216 0 0 1 529.224 326.896 C 529.762 322.124 549.312 300.014 553.216 294.627 C 563.565 280.348 572.023 264.734 582.691 250.688 z"/>
<path transform="translate(0,0)" fill="rgb(248,246,238)" d="M 238.076 273.591 C 252.67 280.834 271.73 317.809 278.432 332.76 C 274.654 339.527 271.255 346.336 268.051 353.392 L 261.993 366.99 C 257.456 335.271 248.858 303.699 238.076 273.591 z"/>
<path transform="translate(0,0)" fill="rgb(248,246,238)" d="M 457.037 537.368 C 469.391 536.319 481.788 536.889 494.142 537.657 C 478.64 544.067 464.678 552.271 450.362 560.909 C 445.494 560.89 440.619 560.709 435.752 560.595 C 423.248 559.71 410.3 558.943 397.789 559.813 C 416.302 546.428 434.483 540.539 457.037 537.368 z"/>
<path transform="translate(0,0)" fill="rgb(248,246,238)" d="M 397.057 567.97 C 415.375 567.472 433.997 567.608 452.282 568.842 C 463.009 577.79 473.175 587.571 483.5 596.987 C 449.365 597.882 424.518 587.229 397.057 567.97 z"/>
<path transform="translate(0,0)" fill="rgb(248,246,238)" d="M 529.907 284.971 C 529.961 285.387 529.975 285.807 529.99 286.226 C 531.279 323.123 511.348 335.347 488.802 359.84 C 487.723 351.4 494.294 329.738 496.528 320.623 C 501.305 301.14 514.055 294.609 529.907 284.971 z"/>
<path transform="translate(0,0)" fill="rgb(248,246,238)" d="M 281.699 341.085 C 288.261 347.651 293.513 380.174 295.454 390.563 C 286.269 401.44 279.322 415.386 271.716 427.486 C 270.933 428.909 269.902 430.116 268.911 431.397 C 266.919 427.817 264.18 390.308 262.942 382.507 C 270.472 369.458 275.864 354.969 281.699 341.085 z"/>
<path transform="translate(0,0)" fill="rgb(248,246,238)" d="M 295.621 402.751 L 296.47 403.652 C 297.783 410.289 296.88 418.067 296.431 424.8 C 294.133 459.247 282.76 483.281 266.733 512.967 L 265.879 512.414 C 265.782 503.592 267.097 494.602 267.539 485.766 C 268.187 472.807 267.979 459.824 267.864 446.854 C 277.051 432.088 286.886 417.813 295.621 402.751 z"/>
<path transform="translate(0,0)" fill="rgb(248,246,238)" d="M 442.438 360.776 C 442.507 361.179 442.616 361.577 442.645 361.984 C 443.075 368.022 439.664 376.43 438.597 382.72 C 430.429 430.876 426.722 429.406 395.724 463.895 C 395.612 463.344 395.441 462.802 395.386 462.242 C 394.903 457.345 396.42 451.109 397.315 446.29 C 403.376 413.657 421.471 385.737 442.438 360.776 z"/>
<path transform="translate(0,0)" fill="rgb(248,246,238)" d="M 223.127 399.596 C 231.603 405.965 254.925 437.668 260.907 447.423 C 259.491 467.409 260.203 487.514 258.727 507.608 L 257.734 509.359 L 256.739 508.846 C 241.789 472.799 228.974 438.43 223.127 399.596 z"/>
<path transform="translate(0,0)" fill="rgb(248,246,238)" d="M 570.36 312.9 L 571.669 313.203 C 570.523 324.563 559.371 342.863 553.472 352.987 C 533.797 361.901 510.973 368.266 490.105 373.826 C 489.228 373.695 489.751 373.854 488.678 373.021 C 491.307 367.829 496.08 363.172 499.909 358.786 C 505.975 351.836 512.094 344.595 519.652 339.208 C 526.049 334.648 533.9 331.788 540.961 328.336 A 488.33 488.33 0 0 0 570.36 312.9 z"/>
<path transform="translate(0,0)" fill="rgb(248,246,238)" d="M 490.574 314.835 C 490.63 315.168 490.717 315.497 490.74 315.833 C 491.126 321.503 487.787 330.313 486.363 335.938 C 483.115 348.771 480.018 364.125 473.073 375.426 C 468.956 382.125 462.41 388.017 457.167 393.857 C 451.337 400.35 446.029 407.051 440.799 414.03 C 439.206 402.215 451.353 365.667 452.257 350.053 C 463.555 336.7 476.905 325.634 490.574 314.835 z"/>
<path transform="translate(0,0)" fill="rgb(248,246,238)" d="M 221.16 338.462 C 227.628 342.329 234.247 349.751 239.206 355.454 C 244.154 361.145 249.007 367.266 252.209 374.14 C 258.979 388.673 261.63 417.239 260.421 433.54 C 254.635 428.373 249.676 420.415 244.801 414.291 C 237.32 404.892 229.56 396.003 221.302 387.287 C 220.022 370.999 220.628 354.766 221.16 338.462 z"/>
<path transform="translate(0,0)" fill="rgb(248,246,238)" d="M 496.51 422.325 L 498.503 422.33 L 498.21 423.442 C 469.72 449.874 439.45 466.909 401.236 475.04 C 399.974 474.879 400.777 475.047 398.921 474.211 C 401.683 466.296 424.595 442.527 431.574 434.591 C 452.774 429.355 475.002 426.143 496.51 422.325 z"/>
<path transform="translate(0,0)" fill="rgb(248,246,238)" d="M 545.95 363.161 L 546.558 364.379 C 540.178 376.033 532.112 387.823 523.965 398.338 C 520.687 402.568 516.399 407.715 511.584 410.134 C 498.451 416.732 459.255 421.689 443.239 423.613 L 442.173 422.862 C 450.145 410.65 466.186 393.559 477.165 383.891 C 500.559 380.072 524.01 371.995 545.95 363.161 z"/>
<path transform="translate(0,0)" fill="rgb(254,229,167)" d="M 161.873 1056.38 C 179.281 1097.59 226.638 1131.35 262.415 1156.81 C 273.4 1164.62 285.123 1171.81 295.497 1180.4 C 303.707 1151.07 320.686 1122.22 337.317 1096.89 C 342.119 1090.38 348.17 1079.48 354.813 1074.9 C 357.918 1076.1 359.02 1077.95 360.367 1080.96 C 370.679 1103.97 374.586 1137.4 377.109 1162.23 C 384.132 1165.1 403.435 1184.09 411.134 1190.28 C 428.782 1204.47 448.465 1219.71 468.519 1230.21 C 474.523 1227.24 488.475 1216.65 494.066 1217.53 C 495.801 1219.69 496.079 1221.97 495.881 1224.66 C 495.554 1229.13 494.496 1233.72 493.707 1238.14 C 488.478 1264.07 480.409 1287.39 467.113 1310.44 L 546.672 1362.68 C 590.33 1391.04 634.192 1419.4 674.308 1452.73 C 719.799 1490.52 761.012 1534.92 800.408 1578.91 L 800.962 1579.5 C 800.796 1620.63 787.686 1676.76 767.356 1712.28 C 741.246 1757.9 702.704 1790.08 651.736 1803.82 C 585.196 1821.74 515.483 1793.2 458.572 1760.09 C 365.358 1705.86 256.011 1616.58 196.538 1526.32 C 171.881 1488.89 150.459 1440.93 139.029 1397.48 C 132.893 1374.15 118.829 1310.82 130.604 1290.71 C 127.701 1282.4 118.865 1265.26 120.698 1256.65 C 121.047 1255.02 122.601 1254.47 123.875 1253.55 C 128.217 1243.01 127.869 1214.42 129.784 1201.43 C 133.462 1176.46 138.645 1151.77 143.819 1127.09 C 148.772 1103.46 153.468 1079.07 161.873 1056.38 z"/>
<path transform="translate(0,0)" fill="rgb(51,51,47)" d="M 161.873 1056.38 C 179.281 1097.59 226.638 1131.35 262.415 1156.81 C 273.4 1164.62 285.123 1171.81 295.497 1180.4 C 303.707 1151.07 320.686 1122.22 337.317 1096.89 C 342.119 1090.38 348.17 1079.48 354.813 1074.9 C 357.918 1076.1 359.02 1077.95 360.367 1080.96 C 370.679 1103.97 374.586 1137.4 377.109 1162.23 C 384.132 1165.1 403.435 1184.09 411.134 1190.28 C 428.782 1204.47 448.465 1219.71 468.519 1230.21 C 474.523 1227.24 488.475 1216.65 494.066 1217.53 C 495.801 1219.69 496.079 1221.97 495.881 1224.66 C 495.554 1229.13 494.496 1233.72 493.707 1238.14 C 488.478 1264.07 480.409 1287.39 467.113 1310.44 C 442.111 1352.1 412.281 1386.96 370.577 1412.93 C 357.318 1447.4 334.541 1515.16 343.128 1550.59 C 348.3 1571.94 363.243 1595.33 375.281 1613.69 C 381.142 1622.64 396.974 1641.05 399.179 1649.62 L 397.711 1651.89 L 395.594 1652.07 C 383.617 1646.08 358.149 1602.16 351.475 1589.21 C 345.534 1577.69 341.224 1565.13 334.273 1554.16 C 328.157 1544.51 321.016 1535.44 314.57 1526 C 296.748 1499.88 278.568 1472.28 264.176 1444.12 A 123.912 123.912 0 0 1 238.231 1435.02 C 184.554 1409.53 149.518 1344.71 130.604 1290.71 C 127.701 1282.4 118.865 1265.26 120.698 1256.65 C 121.047 1255.02 122.601 1254.47 123.875 1253.55 C 128.217 1243.01 127.869 1214.42 129.784 1201.43 C 133.462 1176.46 138.645 1151.77 143.819 1127.09 C 148.772 1103.46 153.468 1079.07 161.873 1056.38 z"/>
<path transform="translate(0,0)" fill="rgb(157,175,131)" d="M 485.572 1229.6 C 485.716 1229.73 485.897 1229.83 486.003 1230 C 488.949 1234.54 481.939 1255.8 480.232 1261.39 C 473.918 1262.59 467.628 1264.49 461.401 1266.1 L 460.537 1265.13 C 468.267 1252.82 477.088 1241.39 485.572 1229.6 z"/>
<path transform="translate(0,0)" fill="rgb(157,175,131)" d="M 301.066 1188.42 C 304.57 1179.02 307.213 1169.19 311.634 1160.18 A 3016.61 3016.61 0 0 0 324.39 1200.73 C 316.905 1200.53 307.348 1192.51 301.066 1188.42 z"/>
<path transform="translate(0,0)" fill="rgb(177,209,218)" d="M 355.175 1089.64 C 361.306 1097.35 362.439 1115.25 363.863 1124.97 C 360.45 1130.73 356.741 1136.13 352.786 1141.53 C 351.261 1143.39 349.68 1146.3 347.358 1146.92 C 349.411 1127.89 352.516 1108.62 355.175 1089.64 z"/>
<path transform="translate(0,0)" fill="rgb(248,246,238)" d="M 140.495 1264.89 C 156.021 1267.14 170.695 1275.79 183.838 1283.83 C 186.007 1294.85 189.841 1305.61 192.71 1316.48 C 185.579 1311.97 177.185 1299.04 170.854 1292.54 C 161.268 1282.7 150.995 1273.72 140.495 1264.89 z"/>
<path transform="translate(0,0)" fill="rgb(248,246,238)" d="M 130.08 1266.59 C 142.107 1272.63 166.678 1297.69 174.594 1308.4 C 164.291 1305.88 154.483 1304.27 143.86 1304 A 498.777 498.777 0 0 1 130.08 1266.59 z"/>
<path transform="translate(0,0)" fill="rgb(157,175,131)" d="M 475.857 1269.11 L 476.636 1269.76 C 477.31 1275.86 469.962 1288.22 467.259 1293.82 C 455.586 1296.28 443.842 1298.52 432.427 1302.02 L 431.684 1301.06 C 437.807 1293.08 444.406 1285.41 450.817 1277.66 L 475.857 1269.11 z"/>
<path transform="translate(0,0)" fill="rgb(157,175,131)" d="M 416.513 1279.93 C 433.191 1264.21 451.082 1249.42 470.799 1237.63 C 457.154 1256.43 442.813 1274.51 428.752 1292.98 C 425.975 1288.31 420.008 1284.48 416.513 1279.93 z"/>
<path transform="translate(0,0)" fill="rgb(157,175,131)" d="M 369.159 1176.45 C 369.123 1195.08 369.51 1214.1 361.551 1231.43 C 354.686 1225.72 348.149 1219.52 340.581 1214.75 C 351.01 1202.6 360.294 1189.76 369.159 1176.45 z"/>
<path transform="translate(0,0)" fill="rgb(248,246,238)" d="M 416.513 1279.93 C 420.008 1284.48 425.975 1288.31 428.752 1292.98 C 418.924 1309.74 406.038 1324.41 396.258 1341.27 C 399.282 1317.51 398.27 1297.91 416.513 1279.93 z"/>
<path transform="translate(0,0)" fill="rgb(248,246,238)" d="M 432.651 1346.24 C 432.514 1346.81 432.461 1347.41 432.24 1347.95 C 427.072 1360.68 390.059 1391.38 376.764 1399.48 C 375.88 1394.07 391.12 1367.22 394.969 1361.23 C 407.723 1357.31 420.303 1351.34 432.651 1346.24 z"/>
<path transform="translate(0,0)" fill="rgb(254,229,167)" d="M 194.016 1390.67 C 210.199 1395.93 226.128 1401.71 242.412 1406.75 C 248.13 1415.83 253.33 1425.59 257.849 1435.31 C 232.846 1425.68 210.357 1412.38 194.016 1390.67 z"/>
<path transform="translate(0,0)" fill="rgb(254,229,167)" d="M 330.886 1222.88 L 340.581 1214.75 C 348.149 1219.52 354.686 1225.72 361.551 1231.43 C 351.955 1245.11 336.495 1256 322.154 1264.19 C 325.276 1250.46 328.444 1236.76 330.886 1222.88 z"/>
<path transform="translate(0,0)" fill="rgb(254,229,167)" d="M 192.562 1289.45 C 204.308 1294.78 215.613 1307.86 223.858 1317.55 C 223.032 1333.11 226.593 1347.79 226.924 1363.18 C 223.246 1359.95 220.285 1354.32 217.465 1350.17 C 200.023 1324.56 200.325 1318.07 192.562 1289.45 z"/>
<path transform="translate(0,0)" fill="rgb(157,175,131)" d="M 364.697 1135.82 C 369.066 1141.2 368.633 1159.42 369.058 1166.64 C 360.046 1181.09 348.414 1195.74 337.145 1208.5 L 335.509 1209.38 L 334.928 1208.06 C 338.571 1192.79 339.942 1168.45 347.82 1155.57 C 352.188 1148.42 359.044 1142 364.697 1135.82 z"/>
<path transform="translate(0,0)" fill="rgb(254,229,167)" d="M 146.654 1310.62 C 157.516 1311.02 168.986 1314.61 179.776 1316.36 C 192.143 1326.84 201.082 1339.19 210.515 1352.27 C 193.029 1348.97 174.624 1341.09 158.141 1334.4 C 153.411 1326.87 149.92 1318.88 146.654 1310.62 z"/>
<path transform="translate(0,0)" fill="rgb(248,246,238)" d="M 459.049 1303.22 L 460.948 1302.96 C 460.933 1303.57 461.005 1304.19 460.905 1304.8 C 460.474 1307.39 456.544 1312.36 455.074 1314.62 C 440.357 1337.17 425.716 1340.97 402.464 1351.23 C 401.281 1351.27 402.013 1351.36 400.396 1350.45 C 401.925 1341.27 419.511 1319.97 425.789 1311.73 C 436.696 1308.34 447.954 1305.92 459.049 1303.22 z"/>
<path transform="translate(0,0)" fill="rgb(248,246,238)" d="M 301.066 1188.42 C 307.348 1192.51 316.905 1200.53 324.39 1200.73 C 328.165 1217.35 318.416 1245.54 314.887 1263.02 C 307.66 1246.11 303.759 1227.11 294.261 1211.26 C 296.213 1203.51 298.508 1195.99 301.066 1188.42 z"/>
<path transform="translate(0,0)" fill="rgb(248,246,238)" d="M 395.438 1298.82 C 396.36 1305.4 392.088 1319.01 391.223 1326.28 C 390.076 1335.91 389.949 1345.57 389.865 1355.27 C 384.257 1363.59 373.002 1390.95 368.516 1394.42 A 178.321 178.321 0 0 1 366.548 1373.95 C 365.262 1343.63 374.955 1320.85 395.438 1298.82 z"/>
<path transform="translate(0,0)" fill="rgb(157,175,131)" d="M 346.462 1096.73 C 348.494 1104.54 332.945 1182.42 329.573 1196.71 C 328.215 1193.4 327.062 1189.98 325.831 1186.62 C 322.323 1175.6 320.742 1163.37 313.91 1153.79 C 323.184 1133.53 333.643 1114.98 346.462 1096.73 z"/>
<path transform="translate(0,0)" fill="rgb(248,246,238)" d="M 361.844 1241.03 C 362.749 1242.34 362.491 1241.58 362.27 1243.65 C 359.632 1268.36 333.255 1304.57 314.08 1319.68 L 313.724 1319.4 C 311.882 1313.22 319.225 1281.71 321.06 1272.61 C 337.37 1264.56 348.894 1253.55 361.844 1241.03 z"/>
<path transform="translate(0,0)" fill="rgb(248,246,238)" d="M 292.141 1221.69 C 297.026 1228.08 309.319 1263.59 313.489 1273.36 A 1344.32 1344.32 0 0 0 305.417 1317.04 C 305.114 1318.24 304.629 1319.39 304.205 1320.55 L 303.106 1319.66 C 290.322 1286.5 284.538 1257.17 292.141 1221.69 z"/>
<path transform="translate(0,0)" fill="rgb(254,229,167)" d="M 231.016 1326.71 C 231.432 1327.06 231.871 1327.38 232.263 1327.75 C 256.122 1350.44 264.603 1397.14 264.784 1428.42 C 264.451 1428.12 264.109 1427.82 263.783 1427.51 C 259.66 1423.6 256.325 1414.71 253.337 1409.61 C 248.194 1400.82 241.836 1391.93 237.96 1382.51 C 231.405 1366.58 231.302 1343.88 231.016 1326.71 z"/>
<path transform="translate(0,0)" fill="rgb(254,229,167)" d="M 162.841 1343.89 C 180.654 1349.66 197.9 1357.78 216.003 1362.57 A 2561.18 2561.18 0 0 1 238.383 1398.27 A 386.033 386.033 0 0 1 227.974 1395.23 C 187.229 1382.64 182.885 1381.79 162.841 1343.89 z"/>
<path transform="translate(0,0)" fill="rgb(157,175,131)" d="M 377.109 1162.23 C 384.132 1165.1 403.435 1184.09 411.134 1190.28 C 428.782 1204.47 448.465 1219.71 468.519 1230.21 C 454.814 1238.19 442.886 1246.82 430.852 1257.19 C 424.416 1262.74 417.904 1269.55 410.932 1274.31 C 403.616 1266.37 380.596 1251.99 370.48 1244.78 C 376.59 1217.18 377.625 1190.34 377.109 1162.23 z"/>
<path transform="translate(0,0)" fill="rgb(248,246,238)" d="M 370.48 1244.78 C 380.596 1251.99 403.616 1266.37 410.932 1274.31 C 394.571 1287.69 378.701 1304.47 369.224 1323.55 C 356.832 1348.49 355.906 1381.56 364.764 1407.77 C 350.473 1445.12 336.337 1484.93 334.782 1525.24 C 307.497 1470.42 306.73 1391.61 312.203 1331.55 C 341.482 1302.65 359.261 1286.32 370.48 1244.78 z"/>
<path transform="translate(0,0)" fill="rgb(254,229,167)" d="M 161.873 1056.38 C 179.281 1097.59 226.638 1131.35 262.415 1156.81 C 273.4 1164.62 285.123 1171.81 295.497 1180.4 C 279.798 1227.66 274.045 1278.2 297.038 1324.11 C 299.522 1329.07 302.085 1334.04 304.953 1338.79 C 298.277 1390.92 301.876 1447.68 316.573 1498.17 C 318.82 1505.89 321.249 1513.82 324.484 1521.2 C 326.966 1526.85 331.064 1532.52 332.51 1538.47 L 331.817 1535.67 L 331.397 1537.59 C 319.618 1522.1 279.51 1460.47 273.849 1444.18 C 269.709 1432.26 271.54 1404.69 268.582 1389.38 C 257.155 1330.24 211.557 1282.47 155.811 1261.52 C 145.151 1257.51 134.701 1256.36 123.875 1253.55 C 128.217 1243.01 127.869 1214.42 129.784 1201.43 C 133.462 1176.46 138.645 1151.77 143.819 1127.09 C 148.772 1103.46 153.468 1079.07 161.873 1056.38 z"/>
<path transform="translate(0,0)" fill="rgb(58,58,53)" d="M 1363.13 311.641 C 1404.88 305.152 1446.51 299.16 1488.72 296.586 C 1512.34 295.147 1536.24 295.809 1559.9 296.152 C 1662.65 297.64 1774.02 310.726 1859.62 372.746 C 1900.44 402.325 1939.39 442.911 1947.36 494.601 C 1956.87 556.331 1928.93 617.658 1899.88 670.524 C 1892.52 683.922 1885.39 698.3 1876.23 710.529 C 1875.1 712.039 1873.95 713.517 1872.65 714.893 C 1859.28 769.012 1835.14 798.9 1794.01 835.308 C 1784.52 869.248 1777.14 902.073 1779.94 937.671 C 1784.34 993.73 1809.57 1043.92 1832.8 1094.02 C 1895.02 1228.24 1933.13 1342.61 1847.45 1478.71 C 1798.87 1555.89 1713.82 1624.41 1634.89 1668.75 C 1619.81 1677.22 1604.06 1685.99 1588.01 1692.46 C 1591.63 1700.37 1600.43 1715.55 1597.81 1724.14 C 1597.71 1724.45 1597.54 1724.73 1597.41 1725.03 C 1595.12 1725.11 1595.1 1724.95 1593.51 1723.39 C 1587.52 1717.52 1584 1706.21 1580.56 1698.53 C 1574.15 1681.65 1567.43 1664.2 1559.44 1648.03 C 1557.85 1651.03 1550.38 1701.97 1548.3 1710.95 L 1547.51 1712.29 C 1494.29 1734.47 1428.52 1743.81 1372.06 1731.33 C 1357.82 1728.19 1344.65 1721.54 1330.62 1718.13 C 1292.8 1762.46 1251.15 1802.48 1211.67 1845.2 A 1153.54 1153.54 0 0 0 1180.62 1880.53 C 1174.49 1887.77 1168.33 1896.66 1161.12 1902.68 C 1158.07 1902.16 1156.68 1901.82 1154.18 1899.82 C 1153.04 1896.84 1153.26 1896.2 1153.84 1893.02 C 1137.69 1883.25 1079.13 1830.93 1067.51 1816.38 C 1066.06 1816.71 1065 1816.92 1063.51 1816.45 C 1060.05 1815.36 1058.97 1812.53 1057.68 1809.51 C 1052.85 1803.7 1044.73 1798.78 1038.7 1794.15 A 4625.37 4625.37 0 0 0 993.334 1759.66 C 974.95 1745.72 957.32 1730.81 939.294 1716.42 A 141.802 141.802 0 0 1 937.31 1719.24 C 934.7 1722.83 933.076 1724.83 928.48 1725.54 C 926.472 1724.79 925.513 1724.55 924.749 1722.28 C 922.894 1716.76 926.606 1711.76 929.304 1707.29 C 904.823 1690.34 883.516 1670 863.193 1648.35 L 861.706 1650.65 C 852.41 1664.98 808.244 1727.14 795.799 1729.8 C 793.217 1729.02 793.212 1728.93 791.646 1726.71 C 791.065 1723.5 791.127 1721.19 792.921 1718.43 C 801.204 1705.65 813.393 1693.69 823.155 1681.88 C 834.342 1668.34 844.134 1653.77 853.691 1639.06 C 833.236 1621.43 819.721 1598.35 800.962 1579.5 L 800.408 1578.91 C 761.012 1534.92 719.799 1490.52 674.308 1452.73 C 634.192 1419.4 590.33 1391.04 546.672 1362.68 L 467.113 1310.44 C 480.409 1287.39 488.478 1264.07 493.707 1238.14 C 494.496 1233.72 495.554 1229.13 495.881 1224.66 C 496.079 1221.97 495.801 1219.69 494.066 1217.53 C 488.475 1216.65 474.523 1227.24 468.519 1230.21 C 448.465 1219.71 428.782 1204.47 411.134 1190.28 C 403.435 1184.09 384.132 1165.1 377.109 1162.23 C 374.586 1137.4 370.679 1103.97 360.367 1080.96 C 359.02 1077.95 357.918 1076.1 354.813 1074.9 C 348.17 1079.48 342.119 1090.38 337.317 1096.89 C 320.686 1122.22 303.707 1151.07 295.497 1180.4 C 285.123 1171.81 273.4 1164.62 262.415 1156.81 C 226.638 1131.35 179.281 1097.59 161.873 1056.38 C 168.811 1027.49 176.884 998.183 187.545 970.429 C 192.817 956.706 199.733 943.589 204.702 929.758 L 205.09 928.656 C 206.843 928.763 208.822 928.994 210.563 928.781 C 213.517 928.42 214.995 926.533 216.825 924.44 C 223.895 908.423 249.861 879.586 262.454 865.78 C 355.753 763.499 523.733 698.728 652.868 654.501 C 724.872 629.84 799.72 606.885 863.949 564.868 C 939.167 515.663 979.104 453.904 997.477 366.376 C 1032.33 374.974 1061.45 392.037 1092.22 409.573 C 1094.06 402.815 1095.64 391.656 1101.2 387.231 C 1103.92 386.661 1104.39 386.425 1106.93 387.412 C 1109.24 390.68 1108.92 394.233 1108.34 398.03 C 1106.98 406.805 1103.72 415.638 1101.06 424.093 C 1105.62 429.204 1110.05 434.466 1115.33 438.856 C 1129.05 427.047 1143.09 412.649 1158.65 403.412 C 1160.65 393.178 1162.76 372.093 1168.7 363.813 C 1170.14 361.815 1171.13 361.324 1173.47 360.843 C 1175.07 361.577 1176.35 362.136 1177.38 363.66 C 1180.67 368.534 1176.35 383.607 1175.45 389.275 L 1176.22 390.333 C 1177.23 390.266 1177.49 390.299 1178.59 389.929 C 1190.89 385.791 1211.93 371.187 1224.24 364.11 C 1232.54 359.337 1241.41 355.473 1250.06 351.386 C 1255.4 348.864 1268.05 344.658 1270.66 339.189 C 1270 336.617 1268.95 333.119 1269.32 330.45 C 1269.69 327.736 1270.62 326.43 1272.61 324.663 C 1274.26 324.401 1274.91 324.037 1276.54 324.73 C 1280.99 326.63 1281.99 330.523 1283.58 334.72 C 1293.42 332.291 1303.26 328.064 1312.95 324.968 C 1329.55 319.667 1346.1 315.333 1363.13 311.641 z"/>
<path transform="translate(0,0)" fill="rgb(248,246,238)" d="M 1547.34 1565.55 C 1550.18 1564.67 1551.49 1563.88 1554.41 1564.63 C 1555.7 1568.12 1554.61 1571.27 1555.24 1574.74 A 1391.07 1391.07 0 0 1 1554.49 1597.3 L 1547.34 1565.55 z"/>
<path transform="translate(0,0)" fill="rgb(254,229,167)" d="M 1306.45 1400.47 C 1307.46 1400.34 1308.47 1400.25 1309.49 1400.21 C 1316.24 1399.95 1324.82 1399.21 1330.13 1403.95 C 1330.91 1407.18 1329.73 1409.21 1328.74 1412.34 L 1328.03 1412.46 C 1322.54 1409.71 1309.71 1405.16 1306.45 1400.47 z"/>
<path transform="translate(0,0)" fill="rgb(254,229,167)" d="M 1344.16 1406.77 C 1348.87 1411.08 1359.53 1430.69 1363.46 1437.29 L 1362.33 1437.54 C 1355.15 1431.14 1347.63 1425.35 1339.96 1419.55 L 1344.16 1406.77 z"/>
<path transform="translate(0,0)" fill="rgb(248,246,238)" d="M 1403.79 1201.71 C 1413.01 1206.64 1421.12 1216.67 1427.93 1224.38 C 1426.9 1230.98 1426.95 1237.78 1426.74 1244.46 L 1425.57 1244.56 C 1417.72 1230.73 1409.78 1216.46 1403.79 1201.71 z"/>
<path transform="translate(0,0)" fill="rgb(248,246,238)" d="M 1636.51 1294.82 C 1637.14 1297.67 1622.39 1334.9 1619.63 1339.29 L 1618.03 1339.5 C 1616.65 1332.5 1615.43 1325.61 1614.73 1318.51 C 1621.59 1310.37 1628.42 1301.75 1636.51 1294.82 z"/>
<path transform="translate(0,0)" fill="rgb(248,246,238)" d="M 1649.36 1288.63 C 1652.58 1298.26 1651.11 1310.91 1650.92 1321.01 C 1644.76 1325.45 1638.72 1329.85 1632.04 1333.47 L 1631.21 1332.03 L 1649.36 1288.63 z"/>
<path transform="translate(0,0)" fill="rgb(248,246,238)" d="M 1429.93 1472.88 C 1440.16 1481.15 1449.24 1493.27 1456.72 1504.01 L 1453.05 1513.59 L 1451.63 1515.57 C 1446.33 1514.14 1437.43 1502.77 1433.26 1498.59 C 1432.61 1490.02 1431.1 1481.41 1429.93 1472.88 z"/>
<path transform="translate(0,0)" fill="rgb(254,229,167)" d="M 1285.78 1404.54 C 1300.32 1408.61 1312.75 1413.55 1325.82 1421.2 C 1324.64 1426.52 1322.29 1431.2 1319.98 1436.11 C 1319.1 1438.43 1318.48 1440.65 1316.57 1442.35 C 1307.04 1434.52 1293.98 1414.93 1285.78 1404.54 z"/>
<path transform="translate(0,0)" fill="rgb(254,229,167)" d="M 1618.58 1427.94 C 1619.62 1428.66 1619.16 1428.14 1619.62 1429.73 C 1612.61 1445.37 1594.36 1463.97 1579.17 1472 L 1578.82 1471.52 C 1577.68 1465.11 1583.97 1452.07 1586.35 1445.78 C 1597.18 1440.02 1607.72 1433.7 1618.58 1427.94 z"/>
<path transform="translate(0,0)" fill="rgb(248,246,238)" d="M 1435.9 1233.37 C 1442.51 1237.99 1448.01 1247.8 1452.68 1254.44 C 1450.72 1266.03 1450.38 1278.18 1448.95 1289.89 L 1448.59 1292.54 L 1447.52 1292.12 C 1435.79 1270.67 1435.54 1257.12 1435.9 1233.37 z"/>
<path transform="translate(0,0)" fill="rgb(157,175,131)" d="M 1471.16 1433.53 L 1478.81 1441.24 C 1474.46 1459.39 1469.25 1478.23 1461.1 1495.08 C 1457.33 1490.64 1453.58 1486.27 1450.34 1481.42 C 1461.68 1469.67 1465.35 1448.56 1471.16 1433.53 z"/>
<path transform="translate(0,0)" fill="rgb(248,246,238)" d="M 1606.62 1330.73 C 1606.86 1330.98 1607.17 1331.16 1607.34 1331.46 C 1608.44 1333.34 1608.82 1336.82 1609.28 1338.96 C 1613.94 1360.68 1603.07 1380.45 1595.38 1400.31 L 1594.95 1400.47 C 1593.01 1398.33 1593.7 1367.51 1590.46 1359.16 L 1606.62 1330.73 z"/>
<path transform="translate(0,0)" fill="rgb(254,229,167)" d="M 1648.83 1333.86 C 1650.66 1340.68 1646.49 1354.58 1645.19 1361.82 C 1634.77 1368.28 1624.67 1375.21 1614.51 1382.08 C 1613.47 1375.68 1621.92 1355.05 1625.37 1348.75 A 589.725 589.725 0 0 0 1648.83 1333.86 z"/>
<path transform="translate(0,0)" fill="rgb(254,229,167)" d="M 1486.58 1328.84 C 1487.95 1330.38 1488.31 1332.43 1488.75 1334.4 C 1492.39 1350.7 1494.44 1398.76 1485.41 1412.67 L 1484.11 1411.79 C 1481.28 1398.59 1479.2 1384.85 1474.81 1372.07 C 1480.69 1358.32 1483.83 1343.48 1486.58 1328.84 z"/>
<path transform="translate(0,0)" fill="rgb(248,246,238)" d="M 1391.16 1200.7 C 1398.18 1206.65 1422.03 1256.97 1426.37 1267.21 C 1415.04 1261.34 1404.2 1252.72 1393.23 1245.96 C 1391.51 1230.98 1391.14 1215.76 1391.16 1200.7 z"/>
<path transform="translate(0,0)" fill="rgb(254,229,167)" d="M 1427.94 1362.63 C 1437.01 1365.43 1459.22 1380.61 1469.28 1386.2 C 1472.44 1398.54 1474.54 1410.79 1475.96 1423.44 C 1461.06 1413.9 1437.34 1378.27 1427.94 1362.63 z"/>
<path transform="translate(0,0)" fill="rgb(254,229,167)" d="M 1583.7 1376.82 L 1584.79 1378.49 C 1585.03 1388.86 1587.03 1399.14 1586.81 1409.51 C 1586.42 1427.16 1575.53 1450.45 1569.43 1467.25 L 1569.16 1467.34 L 1568.2 1466.5 C 1566.11 1434.21 1571.54 1406.73 1583.7 1376.82 z"/>
<path transform="translate(0,0)" fill="rgb(248,246,238)" d="M 1640.81 1375.09 C 1640.85 1375.13 1640.9 1375.16 1640.92 1375.22 C 1642.63 1380.96 1630.21 1406.48 1626.93 1413.65 C 1615.29 1418.24 1605.25 1424.91 1594.8 1431.67 L 1594.33 1431.38 C 1593.69 1426.72 1605.17 1403.27 1607.79 1397.62 C 1619.36 1390.91 1630.14 1383.1 1640.81 1375.09 z"/>
<path transform="translate(0,0)" fill="rgb(254,229,167)" d="M 1459.43 1266.65 C 1468.47 1274.32 1475.98 1298.46 1480.65 1310.02 C 1477.47 1322.94 1476.23 1336.54 1473.37 1349.63 C 1472.81 1351.45 1472.18 1353.21 1471.47 1354.97 L 1470.89 1354.6 C 1466.62 1342.99 1457.18 1317.21 1456.85 1306.36 C 1456.45 1293.32 1459.16 1279.83 1459.43 1266.65 z"/>
<path transform="translate(0,0)" fill="rgb(254,229,167)" d="M 1358.45 1413.57 C 1378.26 1420.12 1404.58 1444.96 1419.55 1460.1 A 1990.71 1990.71 0 0 1 1423.42 1488.49 C 1417.59 1483.84 1412.33 1477.96 1407.02 1472.71 C 1387.27 1453.2 1373.9 1436.68 1358.45 1413.57 z"/>
<path transform="translate(0,0)" fill="rgb(248,246,238)" d="M 1323.35 1461.06 C 1337.21 1475.16 1351.03 1487.9 1367.26 1499.32 C 1351.33 1501.89 1318.01 1501.15 1303.22 1495.81 L 1323.35 1461.06 z"/>
<path transform="translate(0,0)" fill="rgb(248,246,238)" d="M 1394.35 1255.82 C 1426.67 1274.8 1439.97 1289.15 1451.19 1325.49 C 1435.28 1314.35 1418.87 1304.11 1402.86 1293.15 C 1399.2 1280.8 1396.2 1268.57 1394.35 1255.82 z"/>
<path transform="translate(0,0)" fill="rgb(254,229,167)" d="M 1354.21 1478.9 C 1372.23 1478.75 1391.69 1485.11 1409.6 1487.72 C 1418.5 1495.24 1440.98 1516.95 1447.14 1526.21 C 1415.05 1522.47 1379.07 1498.36 1354.21 1478.9 z"/>
<path transform="translate(0,0)" fill="rgb(254,229,167)" d="M 1337 1428.44 C 1356.61 1444.14 1382.37 1456.35 1397.65 1476.61 C 1394.99 1477.59 1391.27 1476.51 1388.44 1476.08 C 1372.98 1472.56 1357.02 1470.32 1341.39 1467.57 C 1336.27 1463 1331.44 1457.99 1326.51 1453.21 C 1329.6 1444.8 1333.38 1436.63 1337 1428.44 z"/>
<path transform="translate(0,0)" fill="rgb(248,246,238)" d="M 1406.05 1306.44 C 1423 1315.69 1439.21 1328.03 1455.33 1338.73 A 396.791 396.791 0 0 1 1467.36 1375.52 C 1451.84 1368.15 1438.14 1355.53 1421.48 1350.42 C 1415.53 1336.03 1410.75 1321.27 1406.05 1306.44 z"/>
<path transform="translate(0,0)" fill="rgb(157,175,131)" d="M 1489.27 1454.66 C 1521.69 1495.73 1537.4 1566.96 1550.61 1617.17 C 1547.01 1611.03 1543.14 1605.32 1538.87 1599.62 C 1516.23 1571.71 1489.26 1550.38 1461.74 1527.62 C 1473.06 1503.92 1480.6 1479.37 1489.27 1454.66 z"/>
<path transform="translate(0,0)" fill="rgb(248,246,238)" d="M 1090.24 875.227 C 1100.58 883.707 1109.13 895.16 1117.84 905.302 A 695.676 695.676 0 0 0 1146.3 936.896 A 1256.49 1256.49 0 0 0 1188.31 979.808 C 1195.72 987.17 1204.13 994.433 1210.86 1002.38 C 1208.41 1002.87 1206.15 1003.18 1203.64 1003.32 C 1165.21 999.902 1124.89 993.64 1087.86 982.617 C 1067.15 976.453 1037 964.757 1026.49 944.234 C 1022.91 937.228 1022.11 929.671 1024.87 922.246 C 1033.53 898.974 1069.11 884.578 1090.24 875.227 z"/>
<path transform="translate(0,0)" fill="rgb(157,175,131)" d="M 1231.67 1019.62 C 1306.22 1025.6 1381.82 1047.63 1431.94 1106.52 C 1481.78 1165.08 1490.85 1238.72 1490.83 1312.76 C 1473.43 1267.12 1448.55 1226.85 1411.07 1194.88 C 1405.16 1189.84 1397.93 1182.68 1390.88 1179.46 C 1389.5 1178.83 1388.12 1178.63 1386.62 1178.49 C 1385.36 1179.27 1384.57 1179.76 1383.6 1180.91 C 1377.43 1176.14 1369.57 1162.95 1364.19 1156.37 A 1025.68 1025.68 0 0 0 1281.96 1067.69 C 1265.54 1051.85 1246.45 1036.91 1231.67 1019.62 z"/>
<path transform="translate(0,0)" fill="rgb(157,175,131)" d="M 1456.64 1538.19 L 1457.86 1538.88 C 1493.11 1558.21 1540.62 1612.68 1559.44 1648.03 C 1557.85 1651.03 1550.38 1701.97 1548.3 1710.95 L 1547.51 1712.29 C 1494.29 1734.47 1428.52 1743.81 1372.06 1731.33 C 1357.82 1728.19 1344.65 1721.54 1330.62 1718.13 C 1378.89 1661.72 1423.68 1605.15 1456.64 1538.19 z"/>
<path transform="translate(0,0)" fill="rgb(157,175,131)" d="M 1270.66 339.189 C 1293.84 431.139 1276.95 525.45 1228.46 606.353 C 1192.37 666.572 1136.65 717.117 1075.03 750.235 C 1056.22 760.347 1035.06 767.886 1017.31 777.55 C 996.778 745.573 990.363 716.91 983.707 680.265 A 390.215 390.215 0 0 0 1016.12 660.273 C 1112.65 593.614 1154.89 502.001 1175.45 389.275 L 1176.22 390.333 C 1177.23 390.266 1177.49 390.299 1178.59 389.929 C 1190.89 385.791 1211.93 371.187 1224.24 364.11 C 1232.54 359.337 1241.41 355.473 1250.06 351.386 C 1255.4 348.864 1268.05 344.658 1270.66 339.189 z"/>
<path transform="translate(0,0)" fill="rgb(183,213,220)" d="M 1303.22 1495.81 C 1318.01 1501.15 1351.33 1501.89 1367.26 1499.32 C 1391.64 1515.07 1415.09 1526.76 1443.26 1534.36 C 1433.88 1557.65 1420.05 1578.29 1406.3 1599.15 C 1374.03 1648.11 1335.28 1695.54 1295.22 1738.4 C 1247.43 1789.53 1196.86 1837.63 1153.84 1893.02 C 1137.69 1883.25 1079.13 1830.93 1067.51 1816.38 C 1077.61 1804.21 1086.83 1791.02 1096.34 1778.38 A 5429.51 5429.51 0 0 0 1151.91 1703.74 L 1262.06 1555.2 C 1276.34 1535.97 1287.88 1514.1 1303.22 1495.81 z"/>
<path transform="translate(0,0)" fill="rgb(183,213,220)" d="M 1080.08 1372.51 L 1081.44 1373.65 C 1099.56 1388.99 1115.98 1405.79 1135 1420.27 C 1168.53 1445.81 1248.17 1489.49 1289.99 1491.61 C 1263.12 1531.31 1234.39 1569.46 1205.83 1607.94 L 1123.64 1719.33 L 1079.93 1777.96 C 1072.38 1788.16 1063.83 1798.43 1057.68 1809.51 C 1052.85 1803.7 1044.73 1798.78 1038.7 1794.15 A 4625.37 4625.37 0 0 0 993.334 1759.66 C 974.95 1745.72 957.32 1730.81 939.294 1716.42 C 949.67 1698.69 961.595 1681.87 972.222 1664.29 C 1012.3 1597.96 1063.7 1503.32 1076.74 1426.73 C 1079.83 1408.59 1080.16 1390.83 1080.08 1372.51 z"/>
<path transform="translate(0,0)" fill="rgb(157,175,131)" d="M 1283.58 334.72 C 1293.42 332.291 1303.26 328.064 1312.95 324.968 C 1329.55 319.667 1346.1 315.333 1363.13 311.641 C 1380.15 355.021 1391.93 380.443 1396.06 428.524 C 1399.47 468.184 1395.46 506.531 1387.05 545.316 A 423.826 423.826 0 0 1 1377.44 581.171 C 1370.41 603.459 1327.82 722.305 1334.22 737.903 C 1285.11 781.693 1219.55 810.629 1159.01 834.433 C 1133.08 844.628 1106.85 853.406 1081.5 865.095 C 1060.86 842.104 1045.36 816.186 1026.57 791.922 C 1025.63 790.703 1024.63 789.995 1023.28 789.281 C 1113.4 750.971 1185.56 701.051 1237.96 616.258 C 1291.63 529.411 1306.86 433.876 1283.58 334.72 z"/>
<path transform="translate(0,0)" fill="rgb(157,175,131)" d="M 1329.1 760.012 C 1327.41 772.071 1327.64 784.799 1328 796.962 C 1329.37 844.184 1341.03 885.474 1369.54 923.455 C 1388.67 948.943 1412.89 969.61 1437.77 989.245 C 1493.92 1033.57 1539.06 1063.51 1573.64 1128.65 C 1589.96 1159.4 1601.01 1195.84 1607.42 1230.06 C 1609.52 1241.32 1615.23 1297.42 1617.27 1301.16 C 1581.93 1346.76 1551.7 1408.95 1559.34 1468.14 C 1560.33 1475.83 1562.27 1484.03 1562.22 1491.77 C 1562.14 1505.2 1558.35 1518.78 1557.34 1532.21 C 1556.55 1542.72 1558.52 1566.06 1555.24 1574.74 C 1554.61 1571.27 1555.7 1568.12 1554.41 1564.63 C 1551.49 1563.88 1550.18 1564.67 1547.34 1565.55 C 1536.17 1514.46 1523.6 1483.01 1493.83 1438.95 A 370.941 370.941 0 0 0 1500.4 1399.76 C 1502.66 1377.89 1501.77 1355.93 1502.31 1333.99 C 1504.41 1248.7 1500.38 1168.39 1443.79 1099 C 1380.53 1021.44 1295.28 1012.49 1203.64 1003.32 C 1206.15 1003.18 1208.41 1002.87 1210.86 1002.38 C 1204.13 994.433 1195.72 987.17 1188.31 979.808 A 1256.49 1256.49 0 0 1 1146.3 936.896 A 695.676 695.676 0 0 1 1117.84 905.302 C 1109.13 895.16 1100.58 883.707 1090.24 875.227 C 1175.19 840.957 1253.97 814.574 1329.1 760.012 z"/>
<path transform="translate(0,0)" fill="rgb(248,246,238)" d="M 1023.28 789.281 C 1024.63 789.995 1025.63 790.703 1026.57 791.922 C 1045.36 816.186 1060.86 842.104 1081.5 865.095 C 1056.96 876.081 1023.72 889.624 1012.97 916.7 A 41.0375 41.0375 0 0 0 1013.84 948.443 C 1023.51 970.373 1049.34 982.884 1070.62 990.587 C 1109.2 1004.56 1150.86 1009.69 1191.35 1014.81 C 1201.77 1016.13 1222.59 1016.27 1231.67 1019.62 C 1246.45 1036.91 1265.54 1051.85 1281.96 1067.69 A 1025.68 1025.68 0 0 1 1364.19 1156.37 C 1369.57 1162.95 1377.43 1176.14 1383.6 1180.91 L 1383.68 1181.97 C 1384.82 1199.55 1382.93 1217.39 1384.13 1235.1 C 1387.05 1278.05 1399.68 1330.92 1421.02 1368.35 C 1434.54 1392.08 1452.73 1413.51 1471.16 1433.53 C 1465.35 1448.56 1461.68 1469.67 1450.34 1481.42 C 1429.89 1456.59 1409.08 1433.87 1381.78 1416.27 C 1370.35 1408.9 1358.25 1402.87 1346.54 1395.99 C 1351.81 1369.02 1351.2 1341.98 1343.72 1315.48 C 1329.14 1263.78 1287.94 1221.44 1245.27 1190.74 C 1226.97 1177.58 1206.77 1166.86 1186.89 1156.32 C 1102.52 1111.61 1004.11 1075.85 913.242 1045.55 C 870.634 1031.35 828.091 1018.38 786.506 1001.26 C 771.983 995.287 757.297 989.433 743.587 981.722 C 726.788 972.273 713.817 961.958 708.474 942.755 C 709.119 939.672 709.886 936.44 711.057 933.513 C 717.544 917.298 738.121 905.157 752.527 896.988 C 776.602 883.335 802.803 873.288 828.405 862.922 C 892.811 836.844 958.992 815.573 1023.28 789.281 z"/>
<path transform="translate(0,0)" fill="rgb(248,246,238)" d="M 1080.08 1372.51 C 1076.93 1347.35 1071.9 1323.75 1061.27 1300.54 C 1017.57 1205.07 902.847 1144.08 812.057 1102.54 C 740.723 1069.91 646.881 1038.32 606.242 966.151 C 592.51 941.766 586.202 915.127 594.004 887.735 C 601.075 862.911 616.055 842.554 636.09 826.557 C 659.358 807.979 688.279 794.984 715.539 783.374 C 803.581 745.875 899.492 726.541 983.707 680.265 C 990.363 716.91 996.778 745.573 1017.31 777.55 C 951.986 805.589 883.407 826.102 817.524 852.939 C 787.539 865.153 756.432 877.931 729.441 896.071 C 717.634 904.006 704.909 914.272 699.249 927.714 C 695.052 937.682 695.371 948.663 699.793 958.502 C 716.022 994.617 802.836 1022.2 839.17 1035.13 C 859.639 1042.41 880.482 1048.41 901.082 1055.28 A 3116.35 3116.35 0 0 1 1029.53 1101.51 C 1124.32 1137.42 1274.43 1195.81 1320.89 1293.04 C 1336.83 1326.41 1339.76 1358.41 1333.99 1394.55 C 1321.64 1392.53 1278.49 1386.23 1269.59 1392.8 C 1269.3 1393.01 1269.08 1393.3 1268.82 1393.54 C 1268.87 1401.63 1304.93 1443 1312.33 1451.35 C 1305.47 1465.23 1298.57 1478.68 1289.99 1491.61 C 1248.17 1489.49 1168.53 1445.81 1135 1420.27 C 1115.98 1405.79 1099.56 1388.99 1081.44 1373.65 L 1080.08 1372.51 z"/>
<path transform="translate(0,0)" fill="rgb(183,213,220)" d="M 1158.65 403.412 C 1160.65 393.178 1162.76 372.093 1168.7 363.813 C 1170.14 361.815 1171.13 361.324 1173.47 360.843 C 1175.07 361.577 1176.35 362.136 1177.38 363.66 C 1180.67 368.534 1176.35 383.607 1175.45 389.275 C 1154.89 502.001 1112.65 593.614 1016.12 660.273 A 390.215 390.215 0 0 1 983.707 680.265 C 899.492 726.541 803.581 745.875 715.539 783.374 C 688.279 794.984 659.358 807.979 636.09 826.557 C 616.055 842.554 601.075 862.911 594.004 887.735 C 586.202 915.127 592.51 941.766 606.242 966.151 C 646.881 1038.32 740.723 1069.91 812.057 1102.54 C 902.847 1144.08 1017.57 1205.07 1061.27 1300.54 C 1071.9 1323.75 1076.93 1347.35 1080.08 1372.51 C 1080.16 1390.83 1079.83 1408.59 1076.74 1426.73 C 1063.7 1503.32 1012.3 1597.96 972.222 1664.29 C 961.595 1681.87 949.67 1698.69 939.294 1716.42 A 141.802 141.802 0 0 1 937.31 1719.24 C 934.7 1722.83 933.076 1724.83 928.48 1725.54 C 926.472 1724.79 925.513 1724.55 924.749 1722.28 C 922.894 1716.76 926.606 1711.76 929.304 1707.29 C 904.823 1690.34 883.516 1670 863.193 1648.35 C 885.72 1607.8 903.91 1567.02 909.675 1520.45 C 913.445 1490 912.41 1457.98 903.426 1428.5 C 892.858 1393.81 872.84 1360.94 849.055 1333.76 C 773.564 1247.49 645.519 1184.21 549.675 1121.38 C 510.189 1095.49 470.012 1069.68 440.857 1031.68 C 421.164 1006.01 409.818 976.893 414.204 944.229 C 426.277 854.321 568.241 791.112 641.428 759.024 C 675.789 743.959 710.265 729.668 745.011 715.536 C 777.752 702.218 810.499 687.901 842.465 672.817 C 883.78 653.322 925.785 632.625 963.274 606.358 C 976.893 596.816 989.129 585.306 1002.38 575.255 C 1036.27 544.877 1060.52 510.98 1081.57 470.922 C 1088.54 469.257 1108.97 445.34 1115.33 438.856 C 1129.05 427.047 1143.09 412.649 1158.65 403.412 z"/>
<path transform="translate(0,0)" fill="rgb(58,58,53)" d="M 1158.65 403.412 C 1160.65 393.178 1162.76 372.093 1168.7 363.813 C 1170.14 361.815 1171.13 361.324 1173.47 360.843 C 1175.07 361.577 1176.35 362.136 1177.38 363.66 C 1180.67 368.534 1176.35 383.607 1175.45 389.275 C 1154.89 502.001 1112.65 593.614 1016.12 660.273 A 390.215 390.215 0 0 1 983.707 680.265 C 899.492 726.541 803.581 745.875 715.539 783.374 C 688.279 794.984 659.358 807.979 636.09 826.557 C 616.055 842.554 601.075 862.911 594.004 887.735 C 586.202 915.127 592.51 941.766 606.242 966.151 C 646.881 1038.32 740.723 1069.91 812.057 1102.54 C 902.847 1144.08 1017.57 1205.07 1061.27 1300.54 C 1071.9 1323.75 1076.93 1347.35 1080.08 1372.51 C 1080.16 1390.83 1079.83 1408.59 1076.74 1426.73 C 1063.7 1503.32 1012.3 1597.96 972.222 1664.29 C 961.595 1681.87 949.67 1698.69 939.294 1716.42 A 141.802 141.802 0 0 1 937.31 1719.24 C 934.7 1722.83 933.076 1724.83 928.48 1725.54 C 926.472 1724.79 925.513 1724.55 924.749 1722.28 C 922.894 1716.76 926.606 1711.76 929.304 1707.29 C 975.607 1637.99 1038.15 1529.3 1058.36 1449 C 1068.54 1408.56 1070.88 1365.63 1057.85 1325.5 C 1026.78 1229.81 912.899 1165.28 827.281 1124.32 C 749.761 1087.24 641.34 1052.1 595.742 974.812 C 579.409 947.128 573.358 914.957 581.587 883.576 C 588.556 857.001 606.7 833.8 627.846 816.754 C 688.116 768.171 789.426 742.552 862.837 716.967 C 904.984 702.278 945.928 686.309 984.7 663.971 C 985.345 645.28 988.692 625.274 993.081 607.14 C 994.671 600.569 1002.46 579.269 1002.38 575.255 C 1036.27 544.877 1060.52 510.98 1081.57 470.922 C 1088.54 469.257 1108.97 445.34 1115.33 438.856 C 1129.05 427.047 1143.09 412.649 1158.65 403.412 z"/>
<path transform="translate(0,0)" fill="rgb(157,175,131)" d="M 1115.33 438.856 C 1129.05 427.047 1143.09 412.649 1158.65 403.412 C 1137.87 508.303 1094.45 591.068 1004.08 651.747 A 607.388 607.388 0 0 1 984.7 663.971 C 985.345 645.28 988.692 625.274 993.081 607.14 C 994.671 600.569 1002.46 579.269 1002.38 575.255 C 1036.27 544.877 1060.52 510.98 1081.57 470.922 C 1088.54 469.257 1108.97 445.34 1115.33 438.856 z"/>
<path transform="translate(0,0)" fill="rgb(183,213,220)" d="M 997.477 366.376 C 1032.33 374.974 1061.45 392.037 1092.22 409.573 C 1094.06 402.815 1095.64 391.656 1101.2 387.231 C 1103.92 386.661 1104.39 386.425 1106.93 387.412 C 1109.24 390.68 1108.92 394.233 1108.34 398.03 C 1106.98 406.805 1103.72 415.638 1101.06 424.093 C 1105.62 429.204 1110.05 434.466 1115.33 438.856 C 1108.97 445.34 1088.54 469.257 1081.57 470.922 C 1060.52 510.98 1036.27 544.877 1002.38 575.255 C 989.129 585.306 976.893 596.816 963.274 606.358 C 925.785 632.625 883.78 653.322 842.465 672.817 C 810.499 687.901 777.752 702.218 745.011 715.536 C 710.265 729.668 675.789 743.959 641.428 759.024 C 568.241 791.112 426.277 854.321 414.204 944.229 C 409.818 976.893 421.164 1006.01 440.857 1031.68 C 470.012 1069.68 510.189 1095.49 549.675 1121.38 C 645.519 1184.21 773.564 1247.49 849.055 1333.76 C 872.84 1360.94 892.858 1393.81 903.426 1428.5 C 912.41 1457.98 913.445 1490 909.675 1520.45 C 903.91 1567.02 885.72 1607.8 863.193 1648.35 L 861.706 1650.65 C 852.41 1664.98 808.244 1727.14 795.799 1729.8 C 793.217 1729.02 793.212 1728.93 791.646 1726.71 C 791.065 1723.5 791.127 1721.19 792.921 1718.43 C 801.204 1705.65 813.393 1693.69 823.155 1681.88 C 834.342 1668.34 844.134 1653.77 853.691 1639.06 C 833.236 1621.43 819.721 1598.35 800.962 1579.5 L 800.408 1578.91 C 761.012 1534.92 719.799 1490.52 674.308 1452.73 C 634.192 1419.4 590.33 1391.04 546.672 1362.68 L 467.113 1310.44 C 480.409 1287.39 488.478 1264.07 493.707 1238.14 C 494.496 1233.72 495.554 1229.13 495.881 1224.66 C 496.079 1221.97 495.801 1219.69 494.066 1217.53 C 488.475 1216.65 474.523 1227.24 468.519 1230.21 C 448.465 1219.71 428.782 1204.47 411.134 1190.28 C 403.435 1184.09 384.132 1165.1 377.109 1162.23 C 374.586 1137.4 370.679 1103.97 360.367 1080.96 C 359.02 1077.95 357.918 1076.1 354.813 1074.9 C 348.17 1079.48 342.119 1090.38 337.317 1096.89 C 320.686 1122.22 303.707 1151.07 295.497 1180.4 C 285.123 1171.81 273.4 1164.62 262.415 1156.81 C 226.638 1131.35 179.281 1097.59 161.873 1056.38 C 168.811 1027.49 176.884 998.183 187.545 970.429 C 192.817 956.706 199.733 943.589 204.702 929.758 L 205.09 928.656 C 206.843 928.763 208.822 928.994 210.563 928.781 C 213.517 928.42 214.995 926.533 216.825 924.44 C 223.895 908.423 249.861 879.586 262.454 865.78 C 355.753 763.499 523.733 698.728 652.868 654.501 C 724.872 629.84 799.72 606.885 863.949 564.868 C 939.167 515.663 979.104 453.904 997.477 366.376 z"/>
<path transform="translate(0,0)" fill="rgb(157,175,131)" d="M 216.825 924.44 C 223.013 939.007 226.766 954.269 233.816 968.529 C 258.223 1017.9 300.559 1056.78 337.317 1096.89 C 320.686 1122.22 303.707 1151.07 295.497 1180.4 C 285.123 1171.81 273.4 1164.62 262.415 1156.81 C 226.638 1131.35 179.281 1097.59 161.873 1056.38 C 168.811 1027.49 176.884 998.183 187.545 970.429 C 192.817 956.706 199.733 943.589 204.702 929.758 L 205.09 928.656 C 206.843 928.763 208.822 928.994 210.563 928.781 C 213.517 928.42 214.995 926.533 216.825 924.44 z"/>
<path transform="translate(0,0)" fill="rgb(58,58,53)" d="M 1092.22 409.573 C 1094.06 402.815 1095.64 391.656 1101.2 387.231 C 1103.92 386.661 1104.39 386.425 1106.93 387.412 C 1109.24 390.68 1108.92 394.233 1108.34 398.03 C 1106.98 406.805 1103.72 415.638 1101.06 424.093 C 1105.62 429.204 1110.05 434.466 1115.33 438.856 C 1108.97 445.34 1088.54 469.257 1081.57 470.922 C 1060.52 510.98 1036.27 544.877 1002.38 575.255 C 989.129 585.306 976.893 596.816 963.274 606.358 C 925.785 632.625 883.78 653.322 842.465 672.817 C 810.499 687.901 777.752 702.218 745.011 715.536 C 710.265 729.668 675.789 743.959 641.428 759.024 C 568.241 791.112 426.277 854.321 414.204 944.229 C 409.818 976.893 421.164 1006.01 440.857 1031.68 C 470.012 1069.68 510.189 1095.49 549.675 1121.38 C 645.519 1184.21 773.564 1247.49 849.055 1333.76 C 872.84 1360.94 892.858 1393.81 903.426 1428.5 C 912.41 1457.98 913.445 1490 909.675 1520.45 C 903.91 1567.02 885.72 1607.8 863.193 1648.35 L 861.706 1650.65 C 852.41 1664.98 808.244 1727.14 795.799 1729.8 C 793.217 1729.02 793.212 1728.93 791.646 1726.71 C 791.065 1723.5 791.127 1721.19 792.921 1718.43 C 801.204 1705.65 813.393 1693.69 823.155 1681.88 C 834.342 1668.34 844.134 1653.77 853.691 1639.06 C 866.625 1616.91 877.096 1595.15 884.925 1570.72 C 901.724 1518.29 904.488 1463.28 883.059 1411.71 C 831.563 1287.81 641.513 1198.4 532.835 1126.26 C 488.256 1096.67 438.882 1063.05 414.01 1014.01 C 399.377 985.157 395.278 951.315 405.813 920.321 C 440.125 819.373 633.476 746.796 725.587 708.863 C 768.427 691.22 811.53 673.547 853.258 653.368 C 973.362 595.287 1047.06 539.471 1092.22 409.573 z"/>
<path transform="translate(0,0)" fill="rgb(183,213,220)" d="M 1081.57 470.922 C 1087.45 455.066 1095.45 440.187 1101.06 424.093 C 1105.62 429.204 1110.05 434.466 1115.33 438.856 C 1108.97 445.34 1088.54 469.257 1081.57 470.922 z"/>
<path transform="translate(0,0)" fill="rgb(157,175,131)" d="M 493.707 1238.14 C 514.068 1245.64 539.964 1264.66 558.479 1276.94 C 641.888 1332.28 737.917 1404.19 780.939 1497.18 C 792.858 1522.94 800.692 1550.31 800.408 1578.91 C 761.012 1534.92 719.799 1490.52 674.308 1452.73 C 634.192 1419.4 590.33 1391.04 546.672 1362.68 L 467.113 1310.44 C 480.409 1287.39 488.478 1264.07 493.707 1238.14 z"/>
<path transform="translate(0,0)" fill="rgb(254,229,167)" d="M 1363.13 311.641 C 1404.88 305.152 1446.51 299.16 1488.72 296.586 C 1512.34 295.147 1536.24 295.809 1559.9 296.152 C 1662.65 297.64 1774.02 310.726 1859.62 372.746 C 1900.44 402.325 1939.39 442.911 1947.36 494.601 C 1956.87 556.331 1928.93 617.658 1899.88 670.524 C 1892.52 683.922 1885.39 698.3 1876.23 710.529 C 1875.1 712.039 1873.95 713.517 1872.65 714.893 C 1859.28 769.012 1835.14 798.9 1794.01 835.308 C 1784.52 869.248 1777.14 902.073 1779.94 937.671 C 1784.34 993.73 1809.57 1043.92 1832.8 1094.02 C 1895.02 1228.24 1933.13 1342.61 1847.45 1478.71 C 1798.87 1555.89 1713.82 1624.41 1634.89 1668.75 C 1619.81 1677.22 1604.06 1685.99 1588.01 1692.46 C 1578.79 1672.28 1568.43 1649.04 1564.03 1627.33 C 1561.84 1616.5 1563.01 1604.54 1563.29 1593.54 C 1564.22 1557.31 1565.41 1519.77 1574.69 1484.58 A 93.6354 93.6354 0 0 0 1583 1480.41 C 1620.38 1459.46 1639.84 1416.39 1650.86 1376.89 A 257.594 257.594 0 0 0 1658.71 1285.23 C 1658.24 1280.08 1658.33 1272.49 1655.44 1268.12 C 1654.55 1266.78 1654.65 1267.23 1652.82 1267.05 C 1640.81 1273.2 1626.89 1291.04 1617.27 1301.16 C 1615.23 1297.42 1609.52 1241.32 1607.42 1230.06 C 1601.01 1195.84 1589.96 1159.4 1573.64 1128.65 C 1539.06 1063.51 1493.92 1033.57 1437.77 989.245 C 1412.89 969.61 1388.67 948.943 1369.54 923.455 C 1341.03 885.474 1329.37 844.184 1328 796.962 C 1327.64 784.799 1327.41 772.071 1329.1 760.012 C 1373.4 721.493 1408.94 683.221 1431.59 628.139 C 1449.5 584.58 1458.68 536.211 1463.83 489.583 C 1464.94 479.614 1468.33 466.07 1464.36 456.659 C 1462.25 454.744 1462.09 454.725 1459.24 454.412 C 1457.36 455.328 1457.43 454.948 1456.39 457.072 C 1451.29 467.556 1449.19 504.381 1447.05 519.015 C 1434.65 604.082 1402.01 682.339 1334.22 737.903 C 1327.82 722.305 1370.41 603.459 1377.44 581.171 A 423.826 423.826 0 0 0 1387.05 545.316 C 1395.46 506.531 1399.47 468.184 1396.06 428.524 C 1391.93 380.443 1380.15 355.021 1363.13 311.641 z"/>
<path transform="translate(0,0)" fill="rgb(51,51,47)" d="M 1710.74 873.253 C 1690.28 871.452 1670.75 868.911 1651.07 862.752 C 1607.06 848.983 1570.73 820.991 1549.32 779.743 C 1533.64 749.533 1530.21 715.519 1536.02 682.264 C 1547.2 618.309 1579.77 572.396 1620.04 523.806 C 1650.06 487.579 1664.76 474.891 1679.51 428.664 C 1681.56 426.848 1681.71 427.077 1684.49 427.032 C 1685.7 427.981 1686.39 428.745 1687.05 430.144 C 1703.56 465.184 1732.37 498.528 1760.74 524.691 C 1786.86 548.784 1814.5 570.735 1836.97 598.512 C 1865.1 633.266 1877.24 670.396 1872.65 714.893 C 1859.28 769.012 1835.14 798.9 1794.01 835.308 C 1767.82 854.873 1750.08 864.782 1717.9 872.449 C 1718.66 918.559 1727.45 964.481 1732.1 1010.27 C 1732.26 1011.85 1732.05 1012.81 1731.41 1014.25 L 1728.96 1015.13 L 1726.93 1014.1 C 1720.27 1004.09 1711.92 892.579 1710.74 873.253 z"/>
<path transform="translate(0,0)" fill="rgb(254,229,167)" d="M 1794.77 822.312 L 1794.51 823.509 C 1770.36 844.313 1749.68 858.73 1717.54 864.027 C 1717.36 861.261 1717.33 858.88 1717.8 856.117 C 1726.07 842.995 1752.35 833.946 1766.78 829.824 C 1775.67 827.284 1784.81 825.953 1793.53 822.779 C 1793.94 822.628 1794.35 822.468 1794.77 822.312 z"/>
<path transform="translate(0,0)" fill="rgb(254,229,167)" d="M 1607.92 833.965 C 1629.38 832.468 1691.11 842.104 1707.93 854.193 C 1709.68 857.263 1709.19 861.067 1709.15 864.51 A 186.527 186.527 0 0 1 1607.92 833.965 z"/>
<path transform="translate(0,0)" fill="rgb(254,229,167)" d="M 1725.68 500.895 C 1733.01 504.568 1748.5 522.832 1754.02 529.625 C 1740.02 538.031 1727.67 547.254 1715.56 558.205 C 1711.23 562.433 1707.33 567.142 1703.32 571.675 C 1701.71 557.268 1699.17 543.059 1697.93 528.582 C 1705.07 517.467 1714.26 507.641 1725.68 500.895 z"/>
<path transform="translate(0,0)" fill="rgb(248,246,238)" d="M 1683.43 440.471 C 1689.21 444.959 1699.8 466.398 1704.83 473.632 C 1709.98 481.043 1715.75 487.776 1721.77 494.477 C 1711.8 500.957 1704.27 509.131 1696.45 518.009 C 1694.64 509.991 1694.94 500.664 1689.91 493.823 L 1685.94 496.053 C 1683.31 501.702 1688.13 512.436 1689.52 518.628 C 1678.57 509.245 1667.63 500.712 1655.33 493.147 C 1668.53 476.344 1677.23 460.968 1683.43 440.471 z"/>
<path transform="translate(0,0)" fill="rgb(254,229,167)" d="M 1649.96 499.954 C 1665.69 507.514 1678.1 518.257 1690.81 530.081 C 1691.72 545.366 1694.48 560.812 1695.98 576.105 C 1691.11 571.488 1685.63 567.507 1680.32 563.407 C 1660.99 550.498 1642.32 543.207 1620.23 536.618 C 1629.5 524.015 1639.69 511.766 1649.96 499.954 z"/>
<path transform="translate(0,0)" fill="rgb(248,246,238)" d="M 1846.98 759.376 L 1847.49 760.051 C 1845.56 772.294 1816.96 804.037 1807.23 813.011 C 1775.37 816.756 1745.52 826.912 1718.56 844.198 L 1717.74 843.52 C 1715.79 837.447 1716.8 828.279 1716.75 821.783 C 1746.65 793.637 1807.17 767.227 1846.98 759.376 z"/>
<path transform="translate(0,0)" fill="rgb(254,229,167)" d="M 1808.74 579.961 C 1809.05 579.988 1809.36 579.976 1809.66 580.042 C 1815.03 581.238 1829.59 601.913 1833.26 607.119 C 1792.01 619.285 1752.77 647.736 1723.12 678.536 C 1719.3 682.784 1715.8 687.295 1712.24 691.761 C 1710.99 678.031 1710.56 664.248 1710.14 650.473 C 1734.45 617.749 1772.01 595.94 1808.74 579.961 z"/>
<path transform="translate(0,0)" fill="rgb(254,229,167)" d="M 1555.66 774.573 C 1596.61 780.352 1674.09 803.491 1708.88 824.808 A 2021.85 2021.85 0 0 1 1708.95 845.898 C 1699.54 843.011 1690.59 838.886 1681.03 836.284 C 1653.76 828.856 1623.97 826.765 1595.83 825.378 A 155.473 155.473 0 0 1 1555.66 774.573 z"/>
<path transform="translate(0,0)" fill="rgb(254,229,167)" d="M 1760.02 535.763 C 1765.66 537.022 1796.77 567.652 1803.06 573.773 C 1795.09 578.194 1786.32 581.467 1778.16 585.594 C 1759.03 595.264 1743.17 607.149 1727.62 621.808 C 1721.18 627.856 1715.12 634.181 1709.08 640.615 C 1708.94 621.504 1705.54 602.29 1704.35 583.168 C 1717.06 562.392 1738.89 546.942 1760.02 535.763 z"/>
<path transform="translate(0,0)" fill="rgb(254,229,167)" d="M 1581.15 588.287 C 1620.89 594.394 1674.89 623.065 1702.88 652.569 C 1702.9 666.216 1703.83 679.92 1704.48 693.553 L 1693.97 684.701 C 1655.46 650.686 1614.75 629.112 1563.87 620.057 A 573.755 573.755 0 0 1 1581.15 588.287 z"/>
<path transform="translate(0,0)" fill="rgb(254,229,167)" d="M 1613.92 543.794 C 1645.21 550.63 1673.82 564.613 1696.67 587.385 L 1702.25 641.391 C 1697.1 636.834 1691.48 632.694 1686.08 628.433 C 1653.74 605.029 1624.03 592.205 1585.84 581.458 C 1593.7 567.915 1603.79 555.687 1613.92 543.794 z"/>
<path transform="translate(0,0)" fill="rgb(254,229,167)" d="M 1864.81 678.028 C 1865.09 678.425 1865.44 678.776 1865.64 679.218 C 1872.12 693.858 1860.2 735.93 1853.22 750.236 C 1809.19 755.579 1753.31 784.52 1717.72 810.448 L 1717.44 810.351 C 1714.51 805.962 1716.02 781.045 1716.04 774.643 C 1744.2 737.26 1822.11 696.838 1864.81 678.028 z"/>
<path transform="translate(0,0)" fill="rgb(254,229,167)" d="M 1541.3 698.737 C 1595.31 704.79 1665.46 743.541 1708.47 775.933 A 3262.21 3262.21 0 0 1 1708.16 816.344 C 1661.55 790.806 1604.27 774.714 1551.86 766.61 C 1543.17 744.586 1540.62 722.253 1541.3 698.737 z"/>
<path transform="translate(0,0)" fill="rgb(254,229,167)" d="M 1837.2 613.953 L 1838.61 614.42 C 1852 629.143 1860.2 650.021 1863.94 669.339 C 1850.39 676.972 1835.66 683.083 1821.76 690.137 C 1788.47 707.035 1757.72 726.021 1729.5 750.555 C 1724.45 754.86 1719.85 759.678 1715.16 764.372 C 1714.52 744.072 1713.02 723.9 1712.86 703.568 C 1743.47 660.27 1788.06 631.983 1837.2 613.953 z"/>
<path transform="translate(0,0)" fill="rgb(254,229,167)" d="M 1561.08 627.693 C 1620.82 638.612 1661.78 663.798 1705 705.369 C 1707.72 724.843 1706.97 745.637 1707.36 765.318 L 1695.46 757.363 C 1658.19 732.491 1586.64 694.512 1542.36 690.738 C 1546.72 668.833 1551.66 648.088 1561.08 627.693 z"/>
</svg>