<svg version="1.1" xmlns="http://www.w3.org/2000/svg" style="display: block;" viewBox="0 0 2048 2048" width="1024" height="1024">
<defs>
	<linearGradient id="Gradient1" gradientUnits="userSpaceOnUse" x1="805.384" y1="226.73" x2="747.817" y2="186.411">
		<stop class="stop0" offset="0" stop-opacity="1" stop-color="rgb(0,50,65)"/>
		<stop class="stop1" offset="1" stop-opacity="1" stop-color="rgb(13,80,94)"/>
	</linearGradient>
</defs>
<path transform="translate(0,0)" fill="rgb(255,252,244)" d="M 0 0 L 2048 0 L 2048 648.867 L 2048 738.577 L 2048 762.302 L 2048 920.458 L 2048 947.008 L 2048 1029.93 L 2048 1049.24 L 2048 1063.43 L 2048 1084.57 L 2048 1106.68 L 2048 1141.78 L 2048 1142.98 L 2048 1396.34 L 2048 1436.37 L 2048 1530.87 L 2048 1576.52 L 2048 1620.48 L 2048 1665.55 L 2048 1720.86 L 2048 1755.69 L 2048 1844.65 L 2048 1906.58 L 2048 2048 L 1905.98 2048 L 1874.58 2048 L 1707.41 2048 L 1663.1 2048 L 1560.07 2048 L 1513.99 2048 L 1362.54 2048 L 1341.74 2048 L 1170.01 2048 L 1134.67 2048 L 1092.43 2048 L 1071.34 2048 L 915.944 2048 L 904.895 2048 L 780.927 2048 L 752.358 2048 L 630.158 2048 L 449.581 2048 L 412.778 2048 L 0 2048 L 0 0 z"/>
<path transform="translate(0,0)" fill="rgb(10,58,65)" d="M 560.762 397.803 C 561.279 394.922 561.454 391.989 563.371 389.658 C 566.492 389.31 567.013 390.137 569.608 391.764 C 570.106 394.033 570.55 396.09 571.468 398.234 L 570.385 399.576 L 568.628 398.944 C 566.583 398.221 564.414 397.475 562.228 397.625 L 560.762 397.803 z"/>
<path transform="translate(0,0)" fill="rgb(36,101,112)" d="M 426.014 529.412 L 427.495 528.919 C 430.944 531.073 434.276 533.153 438.004 534.802 C 435.423 536.981 433.145 539.552 429.621 539.82 C 427.72 538.964 426.496 538.177 424.978 536.746 C 425.256 536.318 425.587 535.92 425.811 535.462 C 427.062 532.917 426.69 532.011 426.014 529.412 z"/>
<path transform="translate(0,0)" fill="rgb(10,58,65)" d="M 666.756 491.828 C 667.873 490.433 669.037 488.742 670.366 487.559 C 672.648 485.525 673.135 485.723 675.995 485.97 C 678.559 488.158 679.08 488.188 679.744 491.632 C 678.618 493.728 678.015 494.724 675.425 495.282 C 671.747 496.074 669.447 493.961 666.756 491.828 z"/>
<path transform="translate(0,0)" fill="rgb(36,101,112)" d="M 745.997 229.058 L 764.684 234.905 L 748.531 240.762 C 748.214 236.796 746.988 232.902 745.997 229.058 z"/>
<path transform="translate(0,0)" fill="rgb(4,57,74)" d="M 569.608 391.764 C 568.652 384.498 567.928 377.088 566.241 369.952 C 570.202 376.284 577.192 384.9 575.532 392.877 C 575.108 394.914 572.848 396.705 571.468 398.234 C 570.55 396.09 570.106 394.033 569.608 391.764 z"/>
<path transform="translate(0,0)" fill="rgb(10,58,65)" d="M 405.368 514.924 C 412.031 519.481 418.201 527.106 426.014 529.412 C 426.69 532.011 427.062 532.917 425.811 535.462 C 425.587 535.92 425.256 536.318 424.978 536.746 C 416.047 530.901 410.631 523.984 405.368 514.924 z"/>
<path transform="translate(0,0)" fill="rgb(4,57,74)" d="M 370.705 576.124 C 366.76 571.894 360.982 553.518 358.382 547.215 C 363.477 554.419 368.815 561.206 374.944 567.56 L 375.365 569.924 L 374.047 571.276 C 372.576 572.814 371.695 574.256 370.705 576.124 z"/>
<path transform="translate(0,0)" fill="rgb(10,58,65)" d="M 469.611 467.835 C 479.584 469.48 489.794 470.206 499.627 472.552 L 500.681 474.403 C 499.597 474.908 498.564 475.401 497.397 475.689 C 487.181 478.214 478.123 472.598 469.611 467.835 z"/>
<path transform="translate(0,0)" fill="rgb(10,58,65)" d="M 432.145 510.203 C 440.081 509.673 454.218 512.413 461.36 516.134 L 461.631 518.122 C 460.475 518.578 459.886 518.851 458.769 519.174 C 450.589 521.543 439.281 513.908 432.145 510.203 z"/>
<path transform="translate(0,0)" fill="rgb(10,58,65)" d="M 425.48 515.616 C 433.367 516.837 441.277 521.963 448.27 525.731 L 448.576 527.945 C 446.521 528.834 444.703 529.701 442.457 529.25 C 435.696 527.889 428.963 521.349 425.48 515.616 z"/>
<path transform="translate(0,0)" fill="rgb(4,57,74)" d="M 607.168 305.804 C 615.237 307.39 626.121 313.469 630.461 320.547 C 632.337 323.607 631.624 325.264 630.971 328.539 L 628.814 328.55 C 622.774 319.669 615.674 312.321 607.168 305.804 z"/>
<path transform="translate(0,0)" fill="rgb(36,101,112)" d="M 1239.64 717.076 C 1245.95 720.087 1252.24 723.337 1258.8 725.755 L 1260.21 727.539 C 1255.94 730.28 1246.78 729.264 1241.61 729.247 L 1239.64 717.076 z"/>
<path transform="translate(0,0)" fill="rgb(10,58,65)" d="M 590.417 346.534 C 590.641 346.666 590.873 346.786 591.089 346.931 C 595.81 350.101 601.21 355.788 602.441 361.452 C 603.341 365.593 602.12 367.747 600.014 371.184 C 598.911 372.479 598.695 372.663 597.036 373.362 C 593.065 364.848 595.779 356.176 590.417 346.534 z"/>
<path transform="translate(0,0)" fill="rgb(10,58,65)" d="M 626.82 283.853 C 628.056 283.955 628.208 283.932 629.61 284.258 C 636.551 285.876 644.765 288.437 648.818 294.607 C 649.296 298.012 648.509 298.988 647.137 302.068 L 645.497 303.4 C 640.579 300.918 636.605 289.564 626.82 283.853 z"/>
<path transform="translate(0,0)" fill="rgb(4,57,74)" d="M 417.725 350.471 C 419.867 352.627 420.373 353.795 421.155 356.618 C 420.738 358.362 420.86 359.269 419.457 360.529 C 416.016 363.619 412.498 363.228 408.201 362.932 C 407.625 361.401 406.911 359.741 406.63 358.129 C 406.225 355.809 406.661 354.533 408.017 352.726 C 410.329 352.209 411.912 351.947 414.261 352.336 L 415.104 353.037 L 417.725 350.471 z"/>
<path transform="translate(0,0)" fill="rgb(10,58,65)" d="M 395.146 527.723 C 401.971 532.205 421.32 539.946 423.564 546.865 C 421.673 547.582 420.082 548.121 418.025 547.825 C 408.067 546.388 400.593 535.146 395.146 527.723 z"/>
<path transform="translate(0,0)" fill="rgb(10,58,65)" d="M 615.368 293.727 C 616.706 293.875 616.83 293.842 618.336 294.285 C 625.803 296.481 637.077 301.658 640.314 309.055 C 640.538 312.21 638.988 314.082 637.365 316.611 L 636.37 317.858 C 634.108 318.221 634.659 317.372 633.786 315.542 C 628.76 305.005 625.564 299.74 615.368 293.727 z"/>
<path transform="translate(0,0)" fill="rgb(10,58,65)" d="M 645.464 259.984 C 653.48 261.468 664.401 260.952 671.705 264.301 C 673.706 265.219 673.808 265.619 674.501 267.556 L 672.273 269.889 L 664.596 275.517 C 658.726 267.742 654.278 264.158 645.464 259.984 z"/>
<path transform="translate(0,0)" fill="rgb(4,57,74)" d="M 638.034 271.613 C 639.784 272.028 639.139 271.77 640.482 272.404 C 647.248 275.602 653.94 274.885 659.548 280.494 C 660.483 284.247 659.351 285.878 658.089 289.47 L 656.398 290.942 C 651.435 291.102 643.032 275.244 638.034 271.613 z"/>
<path transform="translate(0,0)" fill="rgb(10,58,65)" d="M 436.537 497.66 C 451.905 502.953 461.111 504.038 477.305 502.55 L 477.275 503.898 C 473.778 506.882 471.326 509.077 466.593 509.528 C 455.198 510.613 444.866 504.865 436.537 497.66 z"/>
<path transform="translate(0,0)" fill="rgb(4,57,74)" d="M 450.24 470.873 C 457.113 472.102 463.835 478.334 471 480.284 C 478.499 482.325 487.857 479.705 494.89 482.806 L 495.132 485.551 C 492.032 486.806 488.849 487.239 485.506 487.298 C 473.783 487.505 458.466 478.909 450.24 470.873 z"/>
<path transform="translate(0,0)" fill="rgb(10,58,65)" d="M 374.944 567.56 L 374.495 563.281 L 375.815 562.97 C 380.014 566.02 383.072 570.022 387.026 573.317 C 384.564 576.743 382.364 580.808 378.444 582.639 C 375.383 582.337 374.404 581.373 372.14 579.472 L 370.705 576.124 C 371.695 574.256 372.576 572.814 374.047 571.276 L 375.365 569.924 L 374.944 567.56 z"/>
<path transform="translate(0,0)" fill="rgb(4,57,74)" d="M 370.343 540.708 C 373.651 543.421 376.166 546.869 379.488 549.509 C 385.331 554.152 393.603 556.996 398.477 562.425 L 397.488 564.14 C 394.605 566.281 393.855 567.232 390.165 567.299 C 382.381 563.686 374.846 548.347 370.343 540.708 z"/>
<path transform="translate(0,0)" fill="rgb(10,58,65)" d="M 382.363 531.635 C 386.017 534.448 388.502 538.587 391.169 542.308 C 398.427 545.063 405.387 547.948 411.568 552.744 L 411.717 554.996 C 408.766 556.529 406.465 557.526 403.088 556.781 C 393.095 554.574 386.724 539.785 382.363 531.635 z"/>
<path transform="translate(0,0)" fill="rgb(4,57,74)" d="M 597.196 333.631 C 599.287 334.449 601.41 335.489 603.368 336.584 C 607.862 339.095 611.721 342.678 612.776 347.911 C 613.958 353.774 611.377 357.799 608.059 362.363 C 606.515 362.861 607.431 362.791 605.346 361.881 C 602.756 357.145 603.852 354.516 603.701 349.431 C 603.493 342.424 602.376 338.544 597.196 333.631 z"/>
<path transform="translate(0,0)" fill="rgb(10,58,65)" d="M 447.51 485.684 C 451.838 486.874 455.667 489.18 460.159 490.218 C 469.538 492.386 478.492 491.382 487.891 492.351 L 488.147 493.424 L 485.512 495.596 C 481.945 498.368 479.587 499.632 474.897 499.45 C 463.934 499.025 454.755 493.622 447.51 485.684 z"/>
<path transform="translate(0,0)" fill="rgb(10,58,65)" d="M 602.553 316.782 C 603.059 316.966 603.581 317.112 604.072 317.334 C 614.074 321.852 619.321 327.332 623.613 337.279 C 622.46 340.625 620.998 343.919 619.689 347.21 C 617.939 349.157 618.954 348.398 616.669 349.52 C 610.884 342.214 615.832 330.244 602.553 316.782 z"/>
<path transform="translate(0,0)" fill="rgb(4,57,74)" d="M 677.799 246.173 C 683.454 247.507 690.088 253.473 694.912 256.881 C 692.55 258.149 690.106 259.566 687.601 260.53 C 684.222 261.83 681.114 260.258 677.978 258.971 C 671.335 255.824 665.962 251.102 659.017 248.305 C 665.653 248.269 671.403 248.239 677.799 246.173 z"/>
<path transform="translate(0,0)" fill="rgb(10,58,65)" d="M 580.334 353.465 C 581.864 354.54 582.998 355.522 584.143 357.023 C 588.378 362.575 593.908 371.991 592.886 379.1 C 591.443 380.977 591.508 381.86 589.07 382.21 C 587.715 380.551 587.153 379.561 585.138 378.713 L 584.286 379.837 C 584.835 382.302 585.445 384.326 584.766 386.841 C 582.725 388.546 582.188 389.103 579.62 389.616 L 578.335 387.847 C 576.988 379.016 575.893 370.474 573.206 361.914 A 272.003 272.003 0 0 0 575.163 364.334 C 577.814 367.575 580.699 371.963 585.1 372.412 C 587.034 366.631 582.558 358.804 580.334 353.465 z"/>
<path transform="translate(0,0)" fill="rgb(4,57,74)" d="M 652.172 478.851 L 648.605 479.446 L 649.303 478.325 L 650.031 479.193 C 657.317 477.84 664.358 474.678 671.866 474.896 C 676.642 475.034 680.309 476.147 683.658 479.583 C 684.342 481.945 684.531 482.005 683.562 484.227 C 680.541 486.175 679.504 485.918 675.995 485.97 C 673.135 485.723 672.648 485.525 670.366 487.559 C 669.037 488.742 667.873 490.433 666.756 491.828 C 661.751 487.707 657.001 483.182 652.172 478.851 z"/>
<path transform="translate(0,0)" fill="rgb(4,57,74)" d="M 625.533 513.239 C 630.84 514.24 639.816 514.821 644.203 517.99 C 645.624 519.016 646.625 520.132 646.875 521.868 C 647.459 525.934 644.864 529.193 642.734 532.398 C 641.202 533.48 639.586 535.089 637.695 535.311 C 635.077 535.618 633.274 534.947 631.301 533.214 C 626.455 528.957 625.897 519.157 625.533 513.239 z"/>
<path transform="translate(0,0)" fill="rgb(4,57,74)" d="M 587.113 526.674 C 592.083 530.157 594.592 540.064 596.719 545.574 C 595.457 551.769 594.512 555.331 589.586 559.494 C 588.062 559.933 586.53 560.2 584.973 560.498 C 583.113 559.281 582.291 558.953 581.497 556.768 C 578.634 548.896 583.711 534.115 587.113 526.674 z"/>
<path transform="translate(0,0)" fill="rgb(4,57,74)" d="M 605.354 523.512 C 610.744 527.223 619.067 531.567 621.022 538.215 C 622.476 543.159 619.851 547.222 617.599 551.431 C 615.13 552.61 612.295 553.555 609.507 553.467 C 606.638 553.377 605.535 552.237 603.569 550.339 C 600.488 542.195 603.795 531.881 605.354 523.512 z"/>
<path transform="translate(0,0)" fill="rgb(4,57,74)" d="M 347.199 557.476 C 349.075 558.862 369.706 588.145 373.143 592.832 L 366.141 606.463 C 364.887 608.829 363.524 612.58 361.326 613.988 C 357.103 605.369 356.947 594.355 354.909 584.959 C 352.875 575.582 350.269 566.56 347.199 557.476 z"/>
<path transform="translate(0,0)" fill="rgb(4,57,74)" d="M 679.594 451.269 C 683.958 451.186 688.325 451.632 692.675 451.951 C 692.555 456.032 693.023 461.887 691.875 465.693 C 691.028 468.5 690.365 468.8 688.01 470.209 C 682.679 470.671 677.389 468.29 672.375 466.648 C 665.201 464.126 658.194 461.648 650.724 460.155 C 660.158 456.807 669.916 453.816 679.594 451.269 z"/>
<path transform="translate(0,0)" fill="rgb(4,57,74)" d="M 653.764 496.429 C 656.161 496.346 658.599 496.298 660.962 496.793 C 663.252 497.274 665.008 498.609 666.138 500.662 C 667.478 503.097 667.442 505.577 666.839 508.212 C 665.991 511.916 662.898 515.741 659.703 517.699 C 657.139 519.271 655.088 519.088 652.295 518.536 C 645.037 512.133 639.672 505.349 634.255 497.336 L 653.764 496.429 z"/>
<path transform="translate(0,0)" fill="rgb(4,57,74)" d="M 686.359 230.136 C 687.609 229.794 727.491 241.87 731.898 243.631 C 726.565 245.939 721.028 247.755 715.548 249.678 C 704.223 249.708 688.902 242.223 679.464 236.5 C 676.466 234.682 673.517 233.388 670.247 232.139 C 675.945 232.398 680.918 231.858 686.359 230.136 z"/>
<path transform="translate(0,0)" fill="rgb(4,57,74)" d="M 748.531 240.762 C 746.468 241.02 744.55 241.256 742.533 240.569 C 734.641 237.88 726.925 232.886 719.128 229.664 C 706.095 224.279 693.463 221.981 681.053 214.653 C 687.051 215.581 693.21 214.384 699.342 215.36 C 714.808 217.821 730.855 224.622 745.997 229.058 C 746.988 232.902 748.214 236.796 748.531 240.762 z"/>
<path transform="translate(0,0)" fill="rgb(4,57,74)" d="M 292.443 668.797 C 295.957 672.968 300.867 710.045 301.404 717.581 C 297.55 722.878 293.262 726.902 288.386 731.229 C 286.666 732.753 284.855 735.189 282.547 735.283 C 283.333 723.265 286.356 711.231 288.431 699.367 C 290.2 689.25 291.267 678.997 292.443 668.797 z"/>
<path transform="translate(0,0)" fill="rgb(4,57,74)" d="M 761.571 196.41 C 793.414 194.535 821.516 197.322 853.016 200.594 A 154.403 154.403 0 0 1 831.132 210.055 C 811.107 205.554 783.317 196.289 763.107 198.155 L 761.571 196.41 z"/>
<path transform="translate(0,0)" fill="rgb(4,57,74)" d="M 335.105 564.792 C 345.412 582.38 345.768 604.388 359.268 620.911 L 351.409 638.745 L 348.247 645.771 C 340.622 622.41 337.896 589.375 335.105 564.792 z"/>
<path transform="translate(0,0)" fill="rgb(36,101,112)" d="M 1230.61 712.878 L 1239.64 717.076 L 1241.61 729.247 A 241.77 241.77 0 0 1 1167 719.557 C 1176.62 719.065 1184.71 720.866 1194.5 719.047 C 1207.01 718.323 1218.49 716.059 1230.61 712.878 z"/>
<path transform="translate(0,0)" fill="url(#Gradient1)" d="M 722.211 199.125 C 730.358 198.006 756.718 198.961 761.571 196.41 L 763.107 198.155 C 776.01 203.891 810.147 210.8 824.786 211.674 C 816.246 216.542 807.005 221.266 796.952 218.999 C 782.027 212.286 763.494 207.679 747.515 204.752 C 739.523 203.288 727.907 203.304 720.701 199.969 L 722.211 199.125 z"/>
<path transform="translate(0,0)" fill="rgb(4,57,74)" d="M 690.323 207.214 C 717.355 194.696 761.866 215.448 789.74 222.179 C 791.388 222.54 792.983 222.98 794.606 223.439 L 794.278 224.65 C 788.747 228.833 780.286 230.305 773.617 231.947 C 759.553 223.206 734.011 213.394 717.565 210.962 C 708.76 209.66 698.611 210.503 690.323 207.214 z"/>
<path transform="translate(0,0)" fill="rgb(4,57,74)" d="M 319.786 567.575 C 324.166 580.842 324.16 594.983 327.702 608.384 C 331.559 622.977 339.639 637.05 345.525 650.982 C 342.744 657.291 339.306 663.4 336.136 669.527 C 334.172 672.911 332.192 676.202 329.957 679.416 L 329.129 679.172 C 325.312 669.095 326.438 654.947 325.338 644.132 C 322.71 618.278 315.38 593.958 319.786 567.575 z"/>
<path transform="translate(0,0)" fill="rgb(36,101,112)" d="M 1179.28 650.599 C 1200.55 659.344 1248.86 698.131 1259.21 719.221 C 1259.74 720.307 1259.67 720.266 1259.85 721.286 C 1244.39 712.998 1215.02 702.898 1204.73 689.136 C 1197.26 679.137 1191.97 666.973 1183.21 657.908 C 1183.01 657.698 1182.8 657.495 1182.59 657.289 L 1182.49 656.01 C 1180.89 654.14 1179.86 653.058 1179.28 650.599 z"/>
<path transform="translate(0,0)" fill="rgb(4,57,74)" d="M 306.659 575.33 C 307.701 602.734 306.635 630.212 315.302 656.672 C 317.209 662.496 327.178 680.791 325.25 685.782 C 319.665 694.577 314.127 703.619 306.754 711.054 C 307.055 696.655 307.71 682.144 306.343 667.783 C 304.161 644.869 299.262 623.219 298.989 599.977 L 297.39 599.132 C 300.183 591.032 303.191 583.166 306.659 575.33 z"/>
<path transform="translate(0,0)" fill="rgb(36,101,112)" d="M 901.694 946.845 C 907.183 947.733 915.101 955.667 920.321 958.751 C 928.914 963.827 957.075 968.907 961.22 975.082 C 961.44 975.411 961.63 975.758 961.836 976.096 C 969.697 990.047 976.892 1004.11 982.499 1019.13 C 951.333 1002.63 924.46 973.265 901.694 946.845 z"/>
<path transform="translate(0,0)" fill="rgb(4,57,74)" d="M 297.39 599.132 C 283.219 642.726 278.988 695.461 279.009 741.159 C 273.211 747.43 268.632 754.111 264.26 761.428 C 261.408 725.069 271.947 660.682 284.45 626.28 C 287.902 616.78 292.496 607.952 297.39 599.132 z"/>
<path transform="translate(0,0)" fill="rgb(4,57,74)" d="M 513.083 368.305 L 515.769 365.369 C 533.126 373.867 545.763 386.095 560.762 397.803 L 562.228 397.625 C 568.825 405.251 575.352 413 582.243 420.361 C 601.845 441.298 634.253 447.964 661.268 438.45 C 669.462 435.564 678.375 429.495 687.423 430.366 C 689.884 430.602 690.853 431.294 692.455 433.069 C 693.019 435.981 693.869 439.514 692.64 442.379 C 691.672 444.638 689.816 445.604 687.549 446.125 C 680.431 447.761 672.018 443.239 664.6 443.86 C 654.201 444.73 644.457 447.504 633.827 447.501 C 589.322 447.492 578.729 427.297 550.968 398.073 C 539.552 386.056 527.293 376.751 513.083 368.305 z"/>
<path transform="translate(0,0)" fill="rgb(36,101,112)" d="M 337.146 1708.49 C 383.754 1689.51 410.068 1687.8 459.8 1691.17 C 450.794 1696.38 443.997 1702.8 436.631 1710.09 C 403.892 1708.5 372.279 1704.7 339.934 1712.78 C 338.155 1711.16 337.903 1710.78 337.146 1708.49 z"/>
<path transform="translate(0,0)" fill="rgb(36,101,112)" d="M 789.205 1118.67 C 787.986 1118.52 787.831 1118.57 786.516 1118.01 C 775.687 1113.41 766.956 1097.42 762.306 1087.26 C 742.212 1043.35 752.743 995.527 769.122 952.305 C 770.988 947.381 779.389 922.907 782.846 921.346 C 784.792 925.067 782.308 931.807 781.359 935.741 A 352.847 352.847 0 0 0 774.784 974.969 L 773.744 959.009 C 767.813 980.958 772.937 1037.74 769.878 1039.88 C 761.962 1032.01 763.948 1020.36 758.576 1011.54 C 757.842 1030.27 767.589 1036.41 771.61 1050.71 C 774.708 1061.73 776.28 1073.18 778.981 1084.31 C 781.809 1095.95 785.907 1107.17 789.205 1118.67 z"/>
<path transform="translate(0,0)" fill="rgb(36,101,112)" d="M 1432.76 209.823 C 1433.59 220.181 1435.7 230.212 1438.27 240.266 C 1425.4 262.031 1406.19 300.424 1405.84 325.86 C 1404.99 327.228 1405.6 326.614 1403.8 327.463 C 1395.48 319.998 1388.96 283.505 1386.96 271.133 C 1386.83 268.979 1386.62 266.493 1387.33 264.423 C 1391.36 252.648 1409.1 234.372 1417.75 224.592 C 1422.44 219.285 1427.23 214.27 1432.76 209.823 z"/>
<path transform="translate(0,0)" fill="rgb(36,101,112)" d="M 460.933 1694.9 C 462.531 1693.67 464.164 1692.07 466.081 1691.44 L 465.296 1695.05 L 464.542 1693.28 L 464.067 1693.95 L 464.973 1695.57 C 460.058 1707.97 455.557 1720.94 449.458 1732.8 C 429.421 1771.79 396.496 1796.79 357.068 1813.72 C 352.281 1815.77 343.596 1820.28 338.493 1819.25 L 339.746 1817.29 C 354.903 1806.14 364.018 1786.71 369.266 1769.17 C 403.565 1750.75 432.81 1721.56 460.933 1694.9 z"/>
<path transform="translate(0,0)" fill="rgb(36,101,112)" d="M 1427.03 534.797 C 1426.36 535.382 1426.9 535.007 1425.07 534.949 C 1398.93 517.749 1372.33 474.394 1361.63 445.076 C 1353.27 422.18 1349.78 396.217 1351.48 371.93 C 1351.74 368.192 1351.54 363.254 1353.13 359.832 L 1354.07 361.109 C 1352.08 380.422 1375.03 414.01 1386.69 428.364 C 1392.47 435.478 1398.59 442.355 1404.57 449.304 C 1409.17 478.931 1415.36 507.081 1427.03 534.797 z"/>
<path transform="translate(0,0)" fill="rgb(36,101,112)" d="M 1534.65 143.917 L 1535.94 144.907 C 1535.39 154.567 1520.36 172.136 1515.66 181.969 C 1510.51 192.749 1507.23 204.15 1503.4 215.438 C 1484.34 231.908 1462.98 241.165 1438.39 246.496 C 1452.55 220.342 1475.63 196.911 1498.61 178.27 C 1509.05 169.796 1520.11 162.123 1530.41 153.465 L 1531.92 151.514 L 1531.51 150.888 C 1524.01 155.148 1517 160.603 1510.02 165.659 C 1481.86 186.079 1459.79 207.654 1440.54 236.716 C 1437.16 227.436 1436.84 217.646 1433.82 208.325 C 1449 196.273 1464.21 184.206 1480.59 173.788 C 1497.95 162.744 1516.49 153.546 1534.65 143.917 z"/>
<path transform="translate(0,0)" fill="rgb(36,101,112)" d="M 783.427 934.648 L 784.489 933.09 C 788.507 942.414 789.133 953.639 791.93 963.474 C 804.136 1006.4 818.966 1047.53 808.615 1092.94 C 807.131 1099.45 805.712 1106.36 803.107 1112.51 C 802.306 1114.4 801.306 1115.93 800.065 1117.55 L 798.423 1118.14 L 796.174 1115.09 C 789.998 1101.13 784.715 1087.32 781.802 1072.3 C 787.921 1062 804.96 1028.23 803.351 1016.78 C 800.465 1021.35 799.39 1028.31 797.272 1033.49 C 792.793 1044.44 787.344 1055.64 781.545 1065.96 L 780.913 1067.06 C 777.338 1051.91 776.308 1036.58 775.4 1021.09 C 779.657 1013.08 782.821 1004.55 786.423 996.243 C 789.688 988.711 791.039 980.4 792.757 972.391 C 789.042 979.215 787.102 987.425 784.45 994.744 C 781.744 1002.21 778.402 1009.48 775.184 1016.74 C 774.61 989.452 778.982 961.511 783.427 934.648 z"/>
<path transform="translate(0,0)" fill="rgb(36,101,112)" d="M 1484.65 355.204 C 1484.15 376.456 1461.08 422.755 1452.36 444.797 A 340.72 340.72 0 0 0 1440.77 480.203 C 1436.64 495.72 1435.08 509.517 1434.89 525.498 C 1434.85 528.662 1435.28 532.354 1434.03 535.282 C 1433.61 534.587 1433.07 533.902 1432.89 533.106 C 1424.1 510.503 1413.04 481.74 1412.49 457.431 C 1411.72 422.949 1444.12 396.714 1466.39 374.882 C 1472.84 368.565 1478.51 361.775 1484.65 355.204 z"/>
<path transform="translate(0,0)" fill="rgb(36,101,112)" d="M 1004.03 1083.17 C 1032.04 1089.22 1065.44 1084.6 1091.89 1073.99 C 1115.68 1083.99 1138.82 1095.13 1162.41 1105.5 L 1161.02 1105.78 C 1142.89 1109.32 1123.46 1110.18 1105.06 1111.63 C 1099.1 1112.09 1090.61 1111.4 1085.21 1113.42 C 1104.28 1116.1 1124.98 1112.76 1144.03 1110.84 C 1151.77 1110.06 1161.3 1108.09 1168.91 1109.83 C 1180.37 1112.44 1193.42 1121.28 1203.9 1126.82 A 603.199 603.199 0 0 0 1217.34 1134.25 C 1149.98 1122.76 1066.66 1122.01 1006.33 1087.95 C 1004.24 1086.77 1001.49 1085.63 1000.83 1083.26 L 1004.03 1083.17 z"/>
<path transform="translate(0,0)" fill="rgb(36,101,112)" d="M 1805.79 567.431 C 1841.17 560.485 1880.32 544.509 1910.02 523.862 C 1905.61 538.88 1873.98 587.023 1861.31 594.598 C 1860.26 595.226 1859.18 595.591 1858.03 595.984 C 1832.26 608.792 1805.33 620.757 1778.35 630.75 C 1785.14 609.037 1794.44 587.136 1805.79 567.431 z"/>
<path transform="translate(0,0)" fill="rgb(36,101,112)" d="M 1201.43 1311.18 C 1234.57 1323.79 1255.58 1332.89 1284.07 1354.53 L 1283.89 1354.17 C 1312.29 1373.51 1333.8 1403.51 1347.19 1434.89 C 1351.9 1445.94 1355.37 1457.44 1359.5 1468.71 C 1363.26 1478.97 1368.53 1488.73 1371.65 1499.2 C 1371.51 1499.53 1371.33 1499.84 1371.21 1500.18 C 1370.61 1501.99 1371.07 1503.28 1371.47 1505.08 C 1371.18 1504.64 1370.91 1504.2 1370.62 1503.77 C 1369.42 1501.95 1368.85 1500.84 1366.83 1499.99 C 1358.52 1484.29 1350.84 1467.74 1338.84 1454.36 L 1342.18 1452.66 C 1347.64 1459.13 1352.59 1468.55 1359.14 1473.7 C 1340.82 1439.49 1311.65 1409.25 1279.36 1388.08 C 1268.9 1381.22 1256.08 1376.08 1246.47 1368.26 C 1242.36 1364.91 1204.15 1316.4 1201.43 1311.18 z"/>
<path transform="translate(0,0)" fill="rgb(36,101,112)" d="M 1354.64 361.32 C 1353.61 351.325 1354.53 342.365 1357.17 332.671 C 1360.04 322.126 1377.13 273.639 1385.34 269.019 L 1386.17 271.163 C 1384.12 292.078 1394.23 313.017 1403.4 331.165 C 1399.14 368.812 1399.56 405.169 1403.37 442.857 C 1380.67 416.945 1364.73 394.615 1354.64 361.32 z"/>
<path transform="translate(0,0)" fill="rgb(36,101,112)" d="M 262.24 1810.44 C 254.675 1817.42 246.713 1824.04 237.902 1829.4 C 234.302 1831.59 226.671 1833.84 224.135 1836.63 C 232.163 1837.19 247.48 1826.52 253.41 1821.36 C 257.122 1818.14 260.924 1814.12 265.149 1811.61 C 277.102 1804.51 303.663 1800.93 318.987 1794.81 C 334.871 1788.47 350.045 1779.65 365.159 1771.64 C 359.794 1789.36 351.563 1802.32 338.802 1815.69 C 334.251 1820.38 330.116 1823.28 324.046 1825.73 C 284.527 1841.73 212.935 1842.12 171.471 1832.95 C 152.931 1828.84 135.997 1822 118.605 1814.6 C 124.698 1813.75 130.813 1812.54 136.954 1813.48 C 177.601 1819.74 221.948 1818.57 262.24 1810.44 z"/>
<path transform="translate(0,0)" fill="rgb(36,101,112)" d="M 1437.13 248.55 A 121.879 121.879 0 0 0 1502.93 217.969 C 1499.72 231.652 1497.14 245.754 1495.83 259.753 C 1494.94 269.266 1494.88 278.997 1493.61 288.451 C 1493.27 291.008 1492.7 292.722 1491.18 294.87 C 1484.35 300.26 1477.52 305.003 1469.85 309.133 C 1457.04 316.034 1424.97 329.634 1410.53 328.713 C 1408.92 327.249 1409.38 328.126 1408.98 326.163 C 1415.83 298.846 1423.28 273.343 1437.13 248.55 z"/>
<path transform="translate(0,0)" fill="rgb(36,101,112)" d="M 1492.3 295.958 C 1494.8 306.457 1490.15 341.673 1484.69 350.686 C 1484.07 351.711 1483.4 352.695 1482.71 353.676 C 1469.84 369.325 1454.36 381.609 1440.41 396.116 C 1426.74 410.319 1417.32 425.845 1408.57 443.328 C 1401.72 407.657 1403.03 368.569 1407.4 332.687 C 1437.64 328.348 1469.63 316.863 1492.3 295.958 z"/>
<path transform="translate(0,0)" fill="rgb(36,101,112)" d="M 1004.9 1082.08 C 989.199 1079.81 976.997 1069.99 965.235 1059.91 C 934.922 1033.92 913.395 1000.55 901.141 962.791 C 899.032 956.292 895.713 948.772 895.213 941.958 L 896.635 941.913 C 898.285 943.393 899.821 944.61 900.701 946.71 C 900.86 947.089 900.949 947.493 901.072 947.884 C 918.395 973.908 943.348 997.025 968.874 1014.99 C 977.361 1020.96 986.408 1026.09 994.976 1031.92 C 983.27 1032.19 971.596 1032.64 959.976 1030.85 C 954.226 1029.96 948.699 1027.73 942.995 1027.04 L 942.776 1027.69 L 945.024 1026.38 L 944 1027.79 C 946.21 1030.64 959.267 1032.71 963.494 1033.25 C 974.114 1034.62 985.616 1032.39 995.959 1034.49 C 1010.02 1037.33 1024.82 1045.45 1038.11 1050.94 C 1055.18 1057.99 1073.1 1064.42 1089.66 1072.53 C 1069.31 1078.22 1048.61 1082.54 1027.4 1082.9 C 1019.88 1083.02 1012.35 1081.93 1004.9 1082.08 z"/>
<path transform="translate(0,0)" fill="rgb(36,101,112)" d="M 1022.33 581.613 C 1051.32 606.836 1094.26 617.949 1130.2 629.553 C 1147.53 635.148 1164.19 640.03 1179.28 650.599 C 1179.86 653.058 1180.89 654.14 1182.49 656.01 L 1182.59 657.289 C 1189.11 670.06 1198.39 682.18 1206.48 694.024 C 1184.43 683.202 1162.54 672.097 1140.24 661.791 C 1132.15 646.675 1112.21 630.951 1096.65 624.291 C 1100.59 629.897 1111.63 635.418 1117.3 639.921 C 1125.15 646.156 1131.77 653.045 1137.93 660.923 C 1109.44 648.426 1081.47 634.187 1056.81 615.032 C 1047.29 607.634 1038.77 598.969 1029.4 591.37 L 1028.66 591.927 C 1031.5 598.117 1039.03 603.544 1044.11 608.02 C 1085.34 644.315 1125.99 659.482 1173.37 684.741 L 1172.06 685.345 C 1150.25 695.144 1120.79 691.689 1098.49 685.468 L 1098.69 686.139 C 1117.13 695.612 1147.1 695.981 1166.61 689.562 C 1169.66 688.561 1172.58 687.231 1175.49 685.889 A 3318.31 3318.31 0 0 1 1228.65 712.225 C 1217.66 714.889 1205.05 715.531 1194.5 719.047 C 1184.71 720.866 1176.62 719.065 1167 719.557 C 1147.65 714.614 1127.65 707.727 1110.5 697.382 C 1066.57 670.882 1034.81 631.826 1022.33 581.613 z"/>
<path transform="translate(0,0)" fill="rgb(36,101,112)" d="M 142.53 1810.9 L 141.9 1809.72 C 172.154 1798.09 196.978 1787.41 225.286 1771.17 C 261.143 1750.59 299.039 1723.96 337.146 1708.49 C 337.903 1710.78 338.155 1711.16 339.934 1712.78 C 337.444 1713.47 334.731 1713.87 332.661 1715.45 C 340.972 1714.29 349.17 1712.37 357.483 1711.33 C 381.343 1708.35 409.491 1708.87 432.889 1713.88 C 412.421 1731.39 389.384 1752.29 364.946 1764.04 C 329.931 1749.61 303.274 1742.88 265.169 1749.52 C 276.964 1750.11 288.725 1749.36 300.496 1749.84 C 320.516 1750.67 345.133 1756.62 362.486 1766.67 C 345.168 1777.53 325.987 1786.97 306.471 1793.18 C 295.644 1796.62 284.378 1799.01 273.711 1802.87 C 264.989 1795.82 251.773 1792.89 241.262 1789.16 C 234.981 1786.93 211.391 1783.53 205.841 1786.38 C 205.596 1786.51 205.391 1786.7 205.166 1786.86 C 208.486 1789.89 225.145 1788.64 230.416 1789.53 C 243.338 1791.69 260.187 1797.3 271.624 1803.74 C 244.211 1809.22 217.582 1812.16 189.574 1812.01 C 173.949 1811.93 158.116 1810.46 142.53 1810.9 z"/>
<path transform="translate(0,0)" fill="rgb(36,101,112)" d="M 376.242 1396.56 C 396.133 1393.58 415.986 1390.13 435.192 1384.02 C 470.778 1372.68 501.255 1357.81 538.505 1350.32 C 598.341 1338.28 645.074 1349.85 695.384 1383.28 C 671.536 1380.9 647.473 1382.31 623.582 1383.32 C 603.315 1365.08 577.756 1353.8 550.488 1352.5 L 550.326 1352.92 C 580.946 1359.85 592.435 1364.37 616.889 1383.49 C 593.313 1385.14 568.478 1387.08 545.283 1391.57 C 541.862 1391.92 538.415 1392.38 534.981 1392.56 C 520.201 1381.94 497.012 1369.44 478.051 1372.71 C 477.743 1372.76 477.444 1372.86 477.14 1372.93 L 478.093 1373.42 L 478.007 1372.58 L 477.382 1373.11 C 499.991 1379.14 509.52 1377.58 529.937 1392.76 A 685.052 685.052 0 0 1 447.955 1397.3 C 429.377 1397.28 407.415 1394.59 389.344 1398.2 C 397.002 1400.71 408.387 1399.75 416.522 1399.93 C 430.63 1400.24 444.789 1401 458.897 1400.91 C 472.962 1400.82 487.025 1399.86 501.084 1399.88 C 487.148 1406.53 472.964 1412.87 457.824 1416.26 C 451.308 1417.72 440.907 1416.59 435.267 1419.3 C 440.142 1420.31 445.513 1419.83 450.451 1419.45 C 475.147 1417.53 487.884 1405.19 509.726 1399.64 C 522.791 1396.33 537.257 1396.43 550.653 1394.74 C 562.432 1395.6 588.343 1391.06 601.226 1389.71 C 583.249 1402.82 567.503 1414.97 546.289 1422.77 C 534.627 1427.06 522.49 1429.89 510.872 1434.24 L 509.81 1434.65 C 545.565 1431.83 579.991 1414.13 605.351 1389.35 C 627.127 1385.3 671.107 1388.42 693.717 1390.7 C 674.013 1406.33 647.641 1418.26 623.898 1425.66 C 553.041 1447.74 478.062 1442.22 409.962 1413.34 C 398.434 1408.45 387.342 1402.35 376.242 1396.56 z"/>
<path transform="translate(0,0)" fill="rgb(36,101,112)" d="M 1055.1 1221.83 C 1076.28 1255.48 1121.78 1282.35 1158.25 1295.99 C 1169.51 1300.2 1184.17 1302.81 1194.03 1309.65 C 1202.06 1315.21 1234.27 1357.6 1240.61 1367.05 C 1185.98 1342.66 1124.36 1327.32 1086.86 1277.03 C 1074.98 1261.11 1066.1 1243.7 1056.66 1226.3 C 1058.22 1233.63 1061.09 1240.68 1064.38 1247.38 C 1091.05 1301.74 1135.24 1331.01 1190.86 1350.24 C 1165.95 1356.15 1134.95 1360.67 1110.55 1351.19 C 1108.93 1350.56 1107.66 1350.22 1105.9 1350.13 C 1107.4 1352.08 1108.75 1353.1 1111.01 1354.01 C 1131.15 1362.07 1173.07 1359.56 1193.34 1351.63 C 1214.93 1360.91 1237.89 1369.68 1258.39 1381.13 C 1230.34 1389.03 1207.12 1396.74 1177.56 1398.92 L 1176.56 1400.03 L 1176.09 1399.27 L 1173.43 1399.59 L 1175.02 1399.9 L 1173.5 1399.88 C 1173.82 1400.03 1174.13 1400.23 1174.46 1400.35 C 1189.46 1405.76 1246.6 1389.24 1259.96 1381.95 C 1292.37 1398.57 1319.15 1424.94 1342.18 1452.66 L 1338.84 1454.36 C 1313.16 1437.47 1282.63 1431.99 1253.07 1425.75 C 1208.87 1416.44 1161.68 1403.97 1126.13 1374.71 C 1110.85 1362.14 1098.15 1346.96 1087.62 1330.25 C 1063.34 1291.72 1059.47 1266.39 1055.1 1221.83 z"/>
<path transform="translate(0,0)" fill="rgb(4,57,74)" d="M 451.582 347.656 C 481.443 329.454 507.124 302.49 525.298 272.662 C 535.565 255.812 546.062 226.926 562.26 215.777 C 581.122 202.794 607.459 194.21 629.145 186.986 C 732.693 152.492 809.476 155.043 915.477 174.534 C 902.474 183.505 876.938 196.139 861.127 198.142 C 848.57 199.733 828.87 194.203 815.229 193.32 A 476.612 476.612 0 0 0 722.893 196.473 C 707.313 200.081 690.25 199.144 675.185 204.619 C 643.255 208.535 604.685 219.43 583.9 245.662 C 565.055 269.444 554.037 304.155 538.172 330.668 C 533.912 337.788 516.7 359.147 515.769 365.369 L 513.083 368.305 C 491.839 358.09 479.225 368.561 460.002 363.597 C 442.542 359.088 428.39 342.244 409.451 343.288 C 402.612 343.665 395.629 346.783 391.15 352.05 C 387.777 356.016 385.914 361.245 386.605 366.456 C 388.177 378.316 402.131 390.164 409.525 399.378 C 446.53 445.492 487.687 466.16 546.884 470.832 C 559.455 471.824 575.813 469.563 587.538 474.334 C 597.641 478.446 607.919 489.221 616.602 496.106 C 599.778 493.417 588.755 481.496 574.834 479.227 C 573.076 479.78 571.645 479.936 571.631 482.263 C 571.598 487.864 574.188 494.579 574.559 500.448 C 575.242 511.27 573.229 522.195 573.682 532.949 C 573.978 539.971 579.058 555.784 575.726 561.451 L 573.87 560.662 C 557.183 540.104 571.282 513.872 566.231 490.587 C 564.981 484.827 562.082 480.205 556.364 478.152 C 548.399 475.292 535.997 476.364 527.341 475.275 C 488.151 470.345 469.927 462.713 437.284 441.225 C 421.425 456.016 405.27 471.349 387.539 483.889 C 369.922 496.348 351.072 506.005 334.631 520.262 C 324.273 529.243 314.604 539.414 307.434 551.159 C 286.513 585.426 264.403 667.119 261.213 708.284 C 259.734 727.371 262.655 746.371 261.706 765.306 C 261.084 777.737 255.671 792.162 254.608 806.547 C 220.23 742.516 237.995 651.966 258.795 585.853 C 265.302 565.174 271.319 544.109 283.562 525.935 C 314.667 479.765 382.83 452.179 391.612 392.974 C 388.586 388.057 385.47 383.585 381.226 379.609 C 370.406 369.469 357.403 368.846 343.452 369.062 C 357.036 354.743 364.742 355.904 380.609 347.977 C 391.5 342.536 393.634 337.548 407.674 334.991 C 424.813 331.87 438.064 338.118 451.582 347.656 z"/>
<path transform="translate(0,0)" fill="rgb(36,101,112)" d="M 1565.03 773.668 C 1544.17 697.203 1529.73 619.886 1532.02 540.339 C 1535.18 430.391 1582.34 314.266 1662.95 238.322 A 379.785 379.785 0 0 1 1848.27 144.152 C 1861.65 141.446 1876.59 138.092 1890.28 138.48 C 1873.22 141.781 1856.39 145.278 1839.72 150.209 C 1738.71 180.083 1656.03 249.363 1606.08 341.98 C 1544.52 456.144 1547.99 588.27 1577.92 711.044 C 1590.21 761.453 1607.02 810.608 1621.74 860.321 A 685.951 685.951 0 0 1 1636.38 722.039 C 1657.76 620.987 1695.87 532.081 1755.86 447.91 C 1762.57 438.492 1780.35 412.772 1788.84 407.235 C 1788.49 410.267 1775.8 426.613 1773.22 430.494 C 1758.4 452.831 1744.78 476.321 1732.05 499.909 A 721.849 721.849 0 0 0 1663.64 687.801 C 1649.47 753.284 1643.64 819.392 1643.17 886.278 C 1643.03 905.73 1642.55 925.401 1644.13 944.794 C 1645.4 960.372 1648.35 976.004 1650.42 991.509 C 1654.05 1018.58 1656.74 1046.2 1656.86 1073.54 C 1657.18 1147.03 1645.89 1222.23 1621.4 1291.64 C 1609.12 1326.44 1593.74 1360 1578.81 1393.71 A 1146.41 1146.41 0 0 0 1667.07 1291.89 C 1736.25 1201.94 1756.51 1139.05 1747.35 1025.3 C 1742.44 964.204 1734.03 903.704 1734.16 842.232 C 1734.23 810.074 1735.78 777.714 1741.97 746.09 C 1744.56 732.802 1750.45 719.558 1751.85 706.168 C 1752.83 696.791 1750.76 686.297 1750.07 676.903 A 180.865 180.865 0 0 1 1752.55 628.634 C 1767.65 546.195 1828.44 494.015 1895.16 450.351 C 1909.35 441.063 1924.35 433.06 1938.32 423.425 C 1936.42 444.138 1923.8 509.014 1909.52 523.095 L 1907.8 523.803 C 1900.39 526.931 1893.54 532.035 1886.31 535.668 C 1862.12 547.818 1836.02 557.826 1809.47 563.064 C 1817.83 547.136 1829.45 530.358 1842.61 518.021 C 1869.45 513.309 1905.28 504.805 1922.96 482.038 C 1894.68 501.508 1877.6 509.061 1844.02 515.729 C 1861.48 493.612 1887.69 474.026 1908.88 455.255 C 1917.84 447.318 1926.81 439.784 1934.05 430.166 L 1934.87 429.086 L 1935.36 428.431 C 1919.08 441.427 1903.72 455.636 1887.94 469.231 C 1872.96 482.13 1857.1 494.825 1843.29 508.966 C 1803.54 549.668 1778.81 599.677 1764.87 654.372 C 1760.72 670.671 1756.27 687.255 1754.1 703.958 C 1766.52 682.93 1767.32 655.814 1777.51 633.696 C 1804.69 622.708 1834.35 612.439 1859.2 596.787 L 1860.01 596.914 C 1842.96 619.608 1817.85 638.774 1796.63 657.44 C 1782.97 669.455 1768.52 683.094 1760.28 699.564 C 1743.58 732.929 1747.34 815.468 1749.56 852.533 C 1788.47 770.492 1802.36 755.639 1883.05 710.327 C 1830.6 760.12 1793.36 800.056 1768.82 869.614 C 1764.96 880.56 1758.59 894.258 1758.08 905.936 C 1757.3 924.18 1764.09 955.127 1766.41 974.61 C 1773.45 1033.86 1778.55 1096.05 1771.51 1155.49 C 1791.39 1116.84 1808.12 1077.48 1825.74 1037.79 A 3594.92 3594.92 0 0 1 1921.11 836.051 C 1938.38 802.78 1956.13 768.679 1976.99 737.501 C 1997.96 706.158 2022.37 676.501 2048 648.867 L 2048 738.577 C 1978.31 806.997 1941.74 891.6 1905.01 980.306 C 1898.47 996.09 1892.58 1012.17 1885.7 1027.8 C 1840.97 1129.5 1790.66 1227.43 1722.95 1315.94 C 1628.76 1439.08 1477.16 1554.52 1342.17 1629.05 C 1299.66 1652.52 1255.57 1672.61 1211.39 1692.65 C 1173.01 1710.06 1134.42 1727.71 1095.34 1743.48 C 1096.97 1744.29 1099.39 1742.93 1101.13 1742.35 C 1134.46 1731.2 1166.94 1717.1 1199.95 1704.97 C 1250.69 1686.32 1302.48 1669.41 1354.15 1653.45 C 1338.1 1666.7 1321.59 1679.4 1305.96 1693.14 C 1293.66 1703.94 1261.75 1736.53 1250.48 1742.42 C 1238.17 1748.86 1222.51 1752.61 1209.32 1757.12 A 1847.77 1847.77 0 0 0 1137.41 1782.91 C 1011.1 1830.41 878.373 1887.91 790.103 1994.33 C 776.199 2011.09 763.941 2029.58 752.358 2048 L 630.158 2048 L 449.581 2048 L 412.778 2048 C 412.581 2046.77 412.433 2046.33 412.66 2044.94 C 414.346 2034.67 422.633 2020.12 427.042 2010.14 C 461.821 1931.46 515.453 1863.51 580.772 1807.88 C 486.433 1826.08 407.015 1858.44 327.675 1913.19 C 303.371 1929.96 278.341 1949.04 256.706 1969.13 C 252.757 1972.8 230.988 1996.09 229.025 1996.36 C 232.887 1988.86 240.78 1980.98 246.197 1974.37 A 552.747 552.747 0 0 1 616.151 1776.76 A 929.103 929.103 0 0 1 668.673 1740.21 C 703.861 1717.67 741.18 1699.98 780.042 1684.79 C 874.391 1647.93 950.484 1636.83 1050.25 1658.77 L 1051.51 1657.97 C 1052.25 1655.78 1052.51 1655.14 1051.28 1652.94 C 1043.59 1639.12 988.864 1617.35 972.218 1611.45 C 823.8 1558.86 693.144 1576.44 552.245 1642.29 C 523.242 1655.84 496.764 1674.29 467.874 1688.04 C 478.287 1678.26 490.367 1669.82 501.833 1661.33 A 595.059 595.059 0 0 1 638.209 1585.38 C 653.06 1579.67 668.383 1575.15 683.558 1570.38 C 649.92 1572.68 616.323 1573.91 582.723 1577.05 C 461.89 1588.34 349.613 1613.33 239.04 1664.32 A 1156.67 1156.67 0 0 0 149.833 1710.47 C 136.864 1717.94 112.901 1735.34 100.231 1739.75 C 121.975 1721.06 146.705 1705.29 171.056 1690.24 C 238.739 1648.4 310.713 1614.4 387.181 1592.04 C 537.846 1548 741.019 1524.51 895.255 1553.95 C 915.773 1557.87 935.703 1563.68 955.655 1569.81 C 980.595 1577.47 1004.65 1585.75 1027.63 1598.33 C 1009.19 1571.01 991.276 1543.47 968.879 1519.15 C 913.136 1458.62 843.328 1420.91 764.586 1399.4 C 747.797 1394.81 728.078 1388.47 710.718 1387.86 C 708.801 1387.79 706.903 1387.63 704.99 1387.49 L 704.407 1386.48 C 705.091 1386.23 705.759 1385.75 706.484 1385.81 L 706.228 1387.81 L 707.505 1386.18 C 713.295 1385.44 720.847 1387.26 726.737 1387.98 C 757.258 1391.76 787.135 1396.71 816.66 1405.6 C 893.106 1428.61 978.024 1485.93 1025.2 1550.94 C 1032.74 1561.32 1038.72 1572.45 1044.76 1583.73 C 1043.18 1572.63 1041.66 1561.49 1039.35 1550.52 C 1013.37 1427.33 936.754 1328.79 832.587 1260.75 C 663.38 1150.23 460.868 1146.67 279.532 1230.15 C 251.282 1243.15 224.699 1258.11 198.336 1274.63 C 193.322 1277.77 167.354 1295.38 165.184 1295.83 C 168.008 1290.69 178.287 1284.32 183.041 1280.49 A 594.602 594.602 0 0 1 350.078 1185.54 A 587.289 587.289 0 0 1 767.923 1182.32 C 793.592 1191.84 817.224 1205.64 842.13 1216.88 C 826.546 1193.14 794.511 1143.96 793.122 1116.43 C 801.154 1125.61 805.869 1142.07 811.887 1153.04 C 823.818 1174.77 849.476 1213.24 866.087 1230.88 C 874.981 1240.32 888.546 1246.82 899.195 1254.26 C 917.456 1267.01 935.797 1280.67 952.305 1295.62 C 1039.19 1374.32 1102.58 1478.14 1116.51 1595.9 C 1120.06 1625.89 1119.34 1656.17 1118.82 1686.3 C 1153.1 1671.6 1185.67 1652.9 1217.76 1633.99 A 1518.47 1518.47 0 0 0 1360.13 1540.34 C 1364.11 1530.66 1367.88 1520.49 1370.89 1510.46 L 1366.83 1499.99 C 1368.85 1500.84 1369.42 1501.95 1370.62 1503.77 C 1370.91 1504.2 1371.18 1504.64 1371.47 1505.08 C 1371.07 1503.28 1370.61 1501.99 1371.21 1500.18 C 1371.33 1499.84 1371.51 1499.53 1371.65 1499.2 L 1372.31 1500.22 L 1373.56 1499.48 C 1388.72 1455.56 1396.18 1409.64 1399.09 1363.44 C 1399.69 1354 1401.43 1342 1398.64 1332.86 C 1395.97 1324.09 1390.23 1315.17 1386.24 1306.86 C 1378.7 1291.17 1369.4 1276.56 1359.63 1262.18 C 1323.25 1208.62 1281.26 1173.57 1227.59 1138.32 C 1220.51 1133.67 1214.51 1127.5 1206.87 1123.73 C 1168.32 1101.25 1126.39 1082.32 1085.18 1065.19 C 1059.85 1054.66 1006.31 1036.15 986.309 1021.35 C 979.664 1005.17 973.444 989.007 963.19 974.687 C 969.542 973.686 990.383 981.359 998.18 983.341 C 1024.43 990.017 1050.68 994.358 1076.16 1004.1 C 1124.87 1022.73 1168.3 1058.32 1198.43 1100.49 C 1204.09 1108.41 1210.3 1116.8 1214.28 1125.69 C 1296.6 1166.94 1346.37 1203.74 1399.07 1279.83 C 1389.7 1220.77 1376.09 1164.22 1351.35 1109.42 C 1331.65 1065.82 1306.56 1022.45 1276.68 985.028 C 1263.57 968.611 1248.64 953.985 1233.99 938.98 C 1156.24 859.334 1065.86 794.725 969.011 740.366 C 948.029 728.589 927.072 716.651 905.441 706.094 C 874.061 690.779 842.829 675.924 810.3 663.142 A 933.112 933.112 0 0 0 775.685 650.167 C 769.895 648.168 761.59 646.55 756.378 643.569 C 755.846 643.265 755.432 642.79 754.96 642.401 L 753.6 642.349 L 754.75 641.883 C 780.517 649.381 806.334 656.173 831.732 665.016 C 1033.37 735.225 1245.61 861.294 1362.79 1044.65 C 1429.91 1149.68 1465.51 1279.21 1447.7 1403.55 A 583.155 583.155 0 0 1 1434.96 1464.99 C 1431.42 1477.95 1427.04 1490.79 1424.15 1503.9 C 1434.76 1493.9 1445.85 1484.42 1456.3 1474.24 C 1491.15 1440.32 1521.36 1403.22 1545.74 1361.05 C 1575.86 1308.97 1595.03 1248.27 1604.35 1189 C 1606.31 1176.54 1608.56 1163.51 1608.3 1150.88 C 1607.88 1131.11 1601.39 1108.88 1596.27 1089.84 A 432.723 432.723 0 0 0 1558.15 996.845 C 1505.72 899.945 1428.2 833.056 1336.7 774.118 C 1319 762.717 1300.92 751.973 1282.87 741.144 C 1278.1 738.283 1272.64 733.6 1267.67 731.612 C 1267.08 731.376 1266.45 731.231 1265.85 731.04 L 1265.98 729.98 C 1273.09 731.507 1281.21 736.793 1287.94 739.988 C 1339.07 764.267 1383.48 794.527 1430.6 825.267 C 1424.48 817.241 1417.62 809.689 1411.32 801.793 C 1371.66 752.127 1330.72 704.785 1298.8 649.471 C 1243.63 553.859 1206.13 437.153 1236.04 327.191 A 302.896 302.896 0 0 1 1290.88 216.947 C 1293.83 213.247 1297.9 206.363 1301.91 204.073 C 1301.65 205.773 1281.64 235.197 1278.5 240.794 A 328.665 328.665 0 0 0 1252.72 299.245 C 1203.45 452.773 1287.41 606.872 1381.68 723.52 C 1432.46 786.355 1490.53 843.459 1538.88 908.301 A 582.429 582.429 0 0 1 1596.81 1003.03 C 1604.5 1019.08 1610.55 1036.15 1618.71 1051.9 L 1619.2 1052.83 C 1618.78 1015.75 1611.79 979.328 1605.29 942.982 C 1599.42 910.192 1592.36 864.902 1581.72 834.12 C 1570.34 801.212 1551.6 769.915 1534.37 739.828 C 1513.36 703.147 1491.87 666.832 1472.18 629.413 C 1456.94 600.461 1435.25 566.305 1429.22 534.082 C 1464.6 619.084 1524.5 691.482 1565.03 773.668 z"/>
<path transform="translate(0,0)" fill="rgb(255,252,244)" d="M 449.581 2048 C 511.97 1910.21 636.493 1785.58 778.827 1731.92 C 874.468 1695.85 948.313 1690.42 1049.21 1702.19 C 1048.97 1708.92 1048.78 1715.57 1047.73 1722.23 C 1014.55 1739.44 980.475 1754.43 947.665 1772.53 C 853.835 1824.27 756.424 1896.41 684.41 1976 C 665.438 1996.97 642.031 2022.26 630.158 2048 L 449.581 2048 z"/>
<path transform="translate(0,0)" fill="rgb(255,252,244)" d="M 2048 738.577 L 2048 762.302 L 2048 920.458 L 2048 947.008 L 2048 1029.93 L 2048 1049.24 L 2048 1063.43 L 2048 1084.57 L 2048 1106.68 L 2048 1141.78 L 2048 1142.98 L 2048 1396.34 L 2048 1436.37 L 2048 1530.87 L 2048 1576.52 L 2048 1620.48 L 2048 1665.55 L 2048 1720.86 L 2048 1755.69 L 2048 1844.65 L 2048 1906.58 L 2048 2048 L 1905.98 2048 L 1874.58 2048 L 1707.41 2048 L 1663.1 2048 L 1560.07 2048 L 1513.99 2048 L 1362.54 2048 L 1341.74 2048 L 1170.01 2048 L 1134.67 2048 L 1092.43 2048 L 1071.34 2048 L 915.944 2048 L 904.895 2048 L 780.927 2048 L 752.358 2048 C 763.941 2029.58 776.199 2011.09 790.103 1994.33 C 878.373 1887.91 1011.1 1830.41 1137.41 1782.91 A 1847.77 1847.77 0 0 1 1209.32 1757.12 C 1222.51 1752.61 1238.17 1748.86 1250.48 1742.42 C 1261.75 1736.53 1293.66 1703.94 1305.96 1693.14 C 1321.59 1679.4 1338.1 1666.7 1354.15 1653.45 C 1302.48 1669.41 1250.69 1686.32 1199.95 1704.97 C 1166.94 1717.1 1134.46 1731.2 1101.13 1742.35 C 1099.39 1742.93 1096.97 1744.29 1095.34 1743.48 C 1134.42 1727.71 1173.01 1710.06 1211.39 1692.65 C 1255.57 1672.61 1299.66 1652.52 1342.17 1629.05 C 1477.16 1554.52 1628.76 1439.08 1722.95 1315.94 C 1790.66 1227.43 1840.97 1129.5 1885.7 1027.8 C 1892.58 1012.17 1898.47 996.09 1905.01 980.306 C 1941.74 891.6 1978.31 806.997 2048 738.577 z"/>
<path transform="translate(0,0)" fill="rgb(36,101,112)" d="M 1994.12 1480.98 C 2010.92 1465.26 2030.32 1451.26 2048 1436.37 L 2048 1530.87 C 2025.41 1565.67 1986.1 1602.37 1950.74 1623.7 C 1955.89 1609.55 1962.91 1595.99 1968.46 1581.96 A 421.883 421.883 0 0 0 1994.12 1480.98 z"/>
<path transform="translate(0,0)" fill="rgb(36,101,112)" d="M 1999.78 1444.36 A 2189.45 2189.45 0 0 0 2009.57 1350.42 C 2011.29 1329.47 2012.46 1308.45 2015.1 1287.59 C 2020.23 1247.08 2029.83 1205.78 2039.07 1165.97 C 2040.67 1159.06 2041.98 1146.73 2048 1142.98 L 2048 1396.34 A 531.481 531.481 0 0 1 1999.78 1444.36 z"/>
<path transform="translate(0,0)" fill="rgb(36,101,112)" d="M 1873.3 1141.56 C 1886.02 1123.84 1895.24 1103.61 1907.94 1085.72 C 1934.55 1048.26 1967.42 1012.97 2002.29 983.088 C 2017.02 970.469 2032.7 958.922 2048 947.008 L 2048 1029.93 C 1978.89 1054.99 1928.95 1094.95 1873.3 1141.56 z"/>
<path transform="translate(0,0)" fill="rgb(36,101,112)" d="M 2048 1576.52 L 2048 1620.48 C 2037.94 1636.93 2027.69 1653.62 2015.64 1668.71 C 2005.2 1681.8 1993.12 1693.58 1980.93 1705.03 C 1940.89 1742.62 1897.36 1769.84 1848.12 1793.89 C 1869.73 1770.59 1892.3 1738.15 1907.97 1710.47 C 1915.77 1696.69 1925.14 1671.51 1935.14 1660.81 C 1941.94 1653.54 1953.97 1649.22 1962.5 1644.07 A 641.68 641.68 0 0 0 1989.43 1626.61 C 2011.02 1611.81 2029.39 1594.75 2048 1576.52 z"/>
<path transform="translate(0,0)" fill="rgb(36,101,112)" d="M 1900.33 1065.19 C 1908.8 1041.91 1918 1019.11 1926.91 996.019 C 1951.85 931.411 1977.82 868.509 2014.64 809.565 C 2024.79 793.328 2035.43 776.783 2048 762.302 L 2048 920.458 C 1984.12 958.925 1941.02 1003.22 1900.33 1065.19 z"/>
<path transform="translate(0,0)" fill="rgb(36,101,112)" d="M 915.944 2048 C 976.018 1969.36 1056.25 1912.27 1146.6 1873 C 1112.58 1923.58 1082.87 1988.11 1071.34 2048 L 915.944 2048 z"/>
<path transform="translate(0,0)" fill="rgb(36,101,112)" d="M 1823 1494.76 C 1831.52 1487.42 1841.24 1481.07 1850.23 1474.28 A 511.676 511.676 0 0 0 1887.96 1442.93 C 1954.41 1382.19 1986.32 1325.48 2013.8 1240.46 A 898.86 898.86 0 0 0 2037.58 1154.13 C 2042.43 1131.44 2042.82 1107.95 2047.78 1085.52 C 2047.85 1085.2 2047.93 1084.89 2048 1084.57 L 2048 1106.68 L 2048 1141.78 L 2042.95 1139.04 C 2039.18 1158.6 2033.79 1177.92 2028.95 1197.23 C 2025.1 1212.57 2022.04 1228 2018.48 1243.39 C 2014.53 1260.43 2010.01 1277.41 2006.84 1294.62 C 2000.65 1328.23 1996.46 1363.05 1992.97 1397.05 C 1991.01 1416.14 1989.85 1435.37 1987.16 1454.37 C 1978.65 1463.12 1967.89 1470.64 1958.14 1477.97 C 1915.37 1510.1 1870.03 1535.46 1821.24 1557.11 C 1823.94 1537.77 1826.04 1514.01 1823 1494.76 z"/>
<path transform="translate(0,0)" fill="rgb(241,250,247)" d="M 2048 1106.68 L 2048 1141.78 L 2042.95 1139.04 C 2045.59 1128.46 2045.35 1117.36 2048 1106.68 z"/>
<path transform="translate(0,0)" fill="rgb(36,101,112)" d="M 1170.01 2048 C 1237.57 1983.97 1346.22 1949.34 1434.32 1926.39 C 1467.64 1917.71 1502.12 1911.75 1534.4 1899.52 C 1520.51 1912.49 1504.12 1922.89 1488.41 1933.48 C 1440.08 1966.04 1377.54 2001.45 1341.74 2048 L 1170.01 2048 z"/>
<path transform="translate(0,0)" fill="rgb(36,101,112)" d="M 1916.59 1669.01 L 1917.2 1669.45 C 1916.49 1676.52 1907.47 1688.4 1903.74 1694.8 C 1890.84 1716.92 1846.91 1786.15 1829.37 1800.04 C 1815.97 1810.65 1629.33 1861.54 1602.03 1868.72 L 1601.6 1867.73 L 1604.64 1865.74 L 1603.37 1864.26 L 1604.35 1864.7 C 1633.75 1840.39 1664.22 1817.42 1692.58 1791.86 A 808.014 808.014 0 0 0 1728.53 1757.76 C 1734.94 1751.31 1744.3 1738.56 1751.68 1734.11 C 1762.75 1727.45 1789.21 1722.85 1803 1717.94 C 1842.43 1703.9 1879.56 1688.58 1916.59 1669.01 z"/>
<path transform="translate(0,0)" fill="rgb(36,101,112)" d="M 1981.93 1490.19 C 1982.97 1496.05 1980.63 1504.34 1979.41 1510.15 C 1970.19 1554.08 1951.66 1594.05 1933.1 1634.62 C 1923.29 1641.68 1912.31 1647.52 1901.79 1653.43 C 1857.98 1678.06 1812.21 1696.3 1764.54 1712.01 C 1764.5 1711.75 1764.43 1711.49 1764.43 1711.23 C 1764.42 1707.08 1782.06 1680.42 1785.31 1674 C 1800.73 1643.45 1811.37 1612.96 1819.04 1579.63 C 1850.66 1567.19 1883.01 1554.12 1912.61 1537.34 C 1936.8 1523.62 1959.69 1506.84 1981.93 1490.19 z"/>
<path transform="translate(0,0)" fill="rgb(36,101,112)" d="M 1805.12 1502.9 L 1806.22 1503.46 C 1809.83 1514.2 1805.83 1552.82 1804.82 1565.21 C 1786.01 1570.48 1767.78 1577.8 1749.03 1583.37 C 1702.57 1597.16 1655.61 1609.19 1609.36 1623.69 C 1555.94 1640.42 1503.34 1659.78 1450.29 1677.63 C 1398.94 1694.91 1346.11 1709.34 1295.56 1728.77 L 1294.83 1728.68 L 1294.45 1727.45 C 1303.53 1714.56 1390.55 1643.81 1403.5 1637.9 C 1415.37 1632.47 1431.04 1630.7 1443.88 1627.87 C 1473.2 1621.4 1502.82 1615.55 1531.89 1608.02 C 1589.22 1593.15 1646.07 1576.42 1700.75 1553.43 C 1736.48 1538.4 1770.69 1520.64 1805.12 1502.9 z"/>
<path transform="translate(0,0)" fill="rgb(36,101,112)" d="M 780.927 2048 C 794.688 2029.42 808.652 2011.59 824.755 1994.96 C 906.972 1910.06 1020.08 1857.14 1128.56 1814.39 C 1157.92 1802.82 1188.57 1794.66 1217.5 1782.09 C 1211.58 1790.26 1173.8 1838.2 1168.07 1842.72 C 1160.15 1848.96 1147.17 1852.39 1137.81 1856.73 C 1124.48 1862.92 1111.34 1869.67 1098.3 1876.46 C 1040.53 1906.61 985.41 1944.76 943.306 1995.03 C 929.293 2011.76 917.012 2029.87 904.895 2048 L 780.927 2048 z"/>
<path transform="translate(0,0)" fill="rgb(36,101,112)" d="M 1825.78 1821.75 C 1879.97 1805.62 1933.24 1780.17 1976.6 1743.47 C 1988.84 1733.1 2000.05 1721.51 2011.3 1710.1 C 1974.44 1785.81 1913.46 1850.22 1846.45 1900.18 C 1825.45 1915.83 1803.56 1930.6 1781.82 1945.21 C 1741.73 1972.16 1686.31 2004.6 1663.1 2048 L 1560.07 2048 C 1598.13 1985.29 1670.89 1956.95 1726.87 1914.04 C 1750.48 1895.94 1774.21 1876.69 1795.1 1855.45 C 1805.77 1844.6 1815.29 1832.72 1825.78 1821.75 z"/>
<path transform="translate(0,0)" fill="rgb(36,101,112)" d="M 1362.54 2048 C 1390.36 2019.55 1420.93 1994.65 1453.47 1971.74 C 1475.17 1956.45 1497.53 1942.28 1518.99 1926.61 C 1531.69 1917.34 1552.67 1897.46 1566.12 1892.25 C 1575.63 1888.57 1586.48 1886.86 1596.43 1884.62 C 1619.64 1879.39 1643.07 1874.92 1666.22 1869.47 C 1697.69 1862.05 1729.74 1854.06 1760.48 1844.08 C 1775.58 1839.17 1790.18 1832.97 1805.18 1827.84 C 1767.4 1868.95 1718.72 1901.73 1670.97 1930.12 C 1611.01 1965.78 1556.83 1989.64 1513.99 2048 L 1362.54 2048 z"/>
<path transform="translate(0,0)" fill="rgb(36,101,112)" d="M 1803.16 1273.65 C 1804.52 1276.88 1799.84 1325.13 1799.75 1333.47 C 1799.52 1355.67 1799.84 1378.09 1801.58 1400.23 C 1803.61 1425.96 1807.13 1452.19 1807.04 1478.01 C 1781.84 1493.16 1756.82 1508.13 1730.23 1520.77 C 1664.3 1552.12 1591.38 1573.72 1520.89 1592.1 C 1498.69 1597.89 1476.28 1602.8 1454.08 1608.58 C 1452.13 1608.94 1450.17 1609.17 1448.2 1609.42 C 1452.51 1603.85 1483.03 1586.79 1491.19 1581.41 C 1513.07 1566.96 1535.73 1552 1556.54 1536.08 A 1112.22 1112.22 0 0 0 1803.16 1273.65 z"/>
<path transform="translate(0,0)" fill="rgb(36,101,112)" d="M 1796.07 1586.12 C 1797.85 1585.84 1796.85 1585.81 1799.06 1586.55 C 1799.48 1593.29 1796.22 1601.04 1794.31 1607.53 C 1783.3 1644.92 1767.7 1687.48 1744.15 1718.92 C 1733.48 1722.02 1722.15 1723.96 1711.29 1726.33 A 1573.67 1573.67 0 0 1 1623.32 1742.86 C 1550.42 1754.57 1477.07 1763.65 1404.24 1775.67 C 1336.34 1786.88 1271.52 1804.89 1206.24 1826.45 L 1203.37 1826.97 L 1203.31 1825.75 C 1211.51 1815.64 1249.53 1772.61 1258.27 1767.45 C 1268.12 1761.63 1286.05 1758.05 1297.45 1754.34 A 4164.35 4164.35 0 0 0 1385.76 1724.65 C 1433.38 1707.87 1479.53 1686.98 1527.1 1669.89 A 3727.49 3727.49 0 0 1 1796.07 1586.12 z"/>
<path transform="translate(0,0)" fill="rgb(36,101,112)" d="M 2048 1049.24 L 2048 1063.43 C 2045.07 1072.97 2044.7 1084.08 2042.99 1094.02 C 2023.94 1204.91 1966.16 1333.36 1887.48 1414.8 C 1867.75 1435.23 1845.55 1452.42 1822.4 1468.75 C 1823.56 1443.72 1820.59 1417.52 1819.72 1392.39 C 1817.95 1341.45 1821.57 1292.01 1834.24 1242.6 C 1836.57 1233.48 1838.62 1223.94 1841.91 1215.12 C 1847.82 1199.28 1863.74 1185.03 1875.31 1173.03 C 1890.26 1157.52 1905.53 1141.41 1921.81 1127.29 C 1958.45 1095.51 2003.84 1069.03 2048 1049.24 z"/>
<path transform="translate(0,0)" fill="rgb(36,101,112)" d="M 1707.41 2048 C 1735.01 2004.07 1776.64 1976.64 1817.69 1946.81 C 1883.91 1898.69 1959.39 1834.78 2002.64 1764.14 C 2021.37 1733.53 2035.68 1699.17 2048 1665.55 L 2048 1720.86 L 2048 1755.69 L 2048 1844.65 L 2048 1906.58 L 2048 2048 L 1905.98 2048 L 1874.58 2048 L 1707.41 2048 z"/>
<path transform="translate(0,0)" fill="rgb(255,252,244)" d="M 2048 1720.86 L 2048 1755.69 C 2040.78 1778.43 2034.87 1801.71 2026.99 1824.21 C 1996.74 1910.61 1959.3 1974.02 1905.98 2048 L 1874.58 2048 A 735.035 735.035 0 0 0 2013.56 1822.61 C 2026.69 1789.22 2037.32 1755.08 2048 1720.86 z"/>
<path transform="translate(0,0)" fill="rgb(36,101,112)" d="M 2048 1755.69 L 2048 1844.65 L 2048 1906.58 L 2048 2048 L 1905.98 2048 C 1959.3 1974.02 1996.74 1910.61 2026.99 1824.21 C 2034.87 1801.71 2040.78 1778.43 2048 1755.69 z"/>
<path transform="translate(0,0)" fill="rgb(93,139,147)" d="M 2048 1844.65 L 2048 1906.58 C 2045.58 1898.4 2045.71 1853.81 2048 1844.65 z"/>
<path transform="translate(0,0)" fill="rgb(36,101,112)" d="M 1176.36 1859.35 C 1246.24 1829.54 1329.09 1807.88 1403.85 1794.33 C 1460.04 1784.14 1516.8 1777.11 1573.26 1768.63 C 1607.77 1763.45 1642.22 1758.68 1676.51 1752.14 C 1692.41 1749.1 1708.41 1746.32 1723.82 1741.26 C 1711.04 1758.3 1694.49 1772.52 1678.73 1786.72 C 1653.75 1809.2 1628.27 1830.72 1602.25 1851.98 C 1594.72 1858.14 1585.99 1867.48 1577.52 1871.9 C 1565.84 1878.01 1549.88 1879.98 1537.06 1883.2 A 3850.89 3850.89 0 0 0 1486.51 1896.52 C 1385.38 1923.62 1263.01 1955.92 1175.32 2013.36 C 1160.33 2023.18 1145.34 2033.3 1134.67 2048 L 1092.43 2048 C 1104.04 1997.8 1123.51 1951.87 1148.51 1906.89 C 1157.42 1890.86 1168.79 1876.08 1176.36 1859.35 z"/>
</svg>